<svg xmlns="http://www.w3.org/2000/svg" width="505pt" height="312pt" viewBox="0 0 505 312" font-family="Arial, Helvetica, sans-serif"><rect width="505" height="312" fill="#FFFFFF"/><defs><marker id="r1-scalar" viewBox="0 0 10 8" refX="9.4" refY="4" markerWidth="5" markerHeight="4" orient="auto"><path d="M0,0 L10,4 L0,8 Z" fill="#0072B2"/></marker><marker id="r1-field" viewBox="0 0 10 8" refX="9.4" refY="4" markerWidth="5" markerHeight="4" orient="auto"><path d="M0,0 L10,4 L0,8 Z" fill="#E69F00"/></marker><marker id="r1-thermal" viewBox="0 0 10 8" refX="9.4" refY="4" markerWidth="5" markerHeight="4" orient="auto"><path d="M0,0 L10,4 L0,8 Z" fill="#D55E00"/></marker><marker id="r1-gas" viewBox="0 0 10 8" refX="9.4" refY="4" markerWidth="5" markerHeight="4" orient="auto"><path d="M0,0 L10,4 L0,8 Z" fill="#009E73"/></marker><marker id="r1-grey" viewBox="0 0 10 8" refX="9.4" refY="4" markerWidth="5" markerHeight="4" orient="auto"><path d="M0,0 L10,4 L0,8 Z" fill="#6E6E6E"/></marker><marker id="r1-ink" viewBox="0 0 10 8" refX="9.4" refY="4" markerWidth="5" markerHeight="4" orient="auto"><path d="M0,0 L10,4 L0,8 Z" fill="#111111"/></marker><marker id="r1-rule" viewBox="0 0 10 8" refX="9.4" refY="4" markerWidth="5" markerHeight="4" orient="auto"><path d="M0,0 L10,4 L0,8 Z" fill="#BBBBBB"/></marker><marker id="r1-faint" viewBox="0 0 10 8" refX="9.4" refY="4" markerWidth="5" markerHeight="4" orient="auto"><path d="M0,0 L10,4 L0,8 Z" fill="#8A8A8A"/></marker><marker id="r1-hair" viewBox="0 0 10 8" refX="9.4" refY="4" markerWidth="5" markerHeight="4" orient="auto"><path d="M0,0 L10,4 L0,8 Z" fill="#AEB6BD"/></marker><marker id="r1-edge" viewBox="0 0 10 8" refX="9.4" refY="4" markerWidth="5" markerHeight="4" orient="auto"><path d="M0,0 L10,4 L0,8 Z" fill="#C9CFD5"/></marker></defs><text x="18" y="22" font-size="11" fill="#111111" text-anchor="start" font-weight="bold">a</text><text x="34" y="22" font-size="8.5" fill="#6E6E6E" text-anchor="start" font-weight="bold">Runtime prediction</text><rect x="18" y="32" width="84" height="58" rx="2" fill="#FFFFFF" stroke="#6E6E6E" stroke-width="0.8"/><text x="60" y="45" font-size="8.5" fill="#111111" text-anchor="middle" font-weight="bold">Operating</text><text x="60" y="57" font-size="8" fill="#6E6E6E" text-anchor="middle" font-weight="normal">inputs</text><text x="60" y="68" font-size="8" fill="#6E6E6E" text-anchor="middle" font-weight="normal">V, period, duty, τ</text><path d="M104,61 L110,61" fill="none" stroke="#AEB6BD" stroke-width="0.9" marker-end="url(#r1-hair)"/><rect x="112" y="32" width="106" height="58" rx="2" fill="#FFFFFF" stroke="#6E6E6E" stroke-width="0.8"/><text x="165" y="45" font-size="8.5" fill="#111111" text-anchor="middle" font-weight="bold">Element energy</text><text x="165" y="57" font-size="8" fill="#6E6E6E" text-anchor="middle" font-weight="normal">balance</text><text x="165" y="68" font-size="8" fill="#6E6E6E" text-anchor="middle" font-weight="normal">m c<tspan font-size="8" dy="1.9">p</tspan><tspan dy="-1.9">​</tspan>(T) dT/dt =</text><text x="165" y="79" font-size="8" fill="#6E6E6E" text-anchor="middle" font-weight="normal">V²/R(T) − losses(T)</text><path d="M220,61 L226,61" fill="none" stroke="#AEB6BD" stroke-width="0.9" marker-end="url(#r1-hair)"/><rect x="228" y="38" width="74" height="44" rx="0" fill="#FFFFFF" stroke="#6E6E6E" stroke-width="0.7"/><path d="M228.0,57.1 L228.1,56.1 L228.2,55.1 L228.3,54.1 L228.4,53.1 L228.5,52.2 L228.6,51.2 L228.6,50.3 L228.7,49.3 L228.8,48.4 L228.9,47.5 L229.0,46.6 L229.1,45.7 L229.2,44.8 L229.3,43.9 L229.4,43.0 L229.5,42.1 L229.6,41.2 L229.7,40.4 L229.8,39.5 L229.8,38.6 L229.9,38.7 L230.0,38.8 L230.1,39.0 L230.2,39.1 L230.3,39.2 L230.4,39.3 L230.5,39.4 L230.6,39.5 L230.7,39.6 L230.8,39.7 L230.9,39.7 L231.0,39.8 L231.1,39.9 L231.1,40.0 L231.2,40.1 L231.3,40.2 L231.4,40.3 L231.5,40.4 L231.6,40.5 L231.7,40.6 L231.8,40.7 L231.9,40.8 L232.0,40.9 L232.1,41.0 L232.2,41.0 L232.3,41.1 L232.3,41.2 L232.4,41.3 L232.5,41.4 L232.6,41.5 L232.7,41.6 L232.8,41.7 L232.9,41.7 L233.0,41.8 L233.1,41.9 L233.2,42.0 L233.3,42.1 L233.4,42.2 L233.5,42.2 L233.6,42.3 L233.6,42.4 L233.7,42.5 L233.8,42.6 L233.9,42.6 L234.0,42.7 L234.1,42.8 L234.2,42.9 L234.3,43.0 L234.4,43.0 L234.5,43.1 L234.6,43.2 L234.7,43.3 L234.8,43.3 L234.8,43.4 L234.9,43.5 L235.0,43.6 L235.1,43.6 L235.2,43.7 L235.3,43.8 L235.4,43.9 L235.5,43.9 L235.6,44.0 L235.7,44.1 L235.8,44.2 L235.9,44.2 L236.0,44.3 L236.0,44.4 L236.1,44.4 L236.2,44.5 L236.3,44.6 L236.4,44.6 L236.5,44.7 L236.6,44.8 L236.7,44.9 L236.8,44.9 L236.9,45.0 L237.0,45.1 L237.1,45.1 L237.2,45.2 L237.3,45.3 L237.3,45.3 L237.4,45.4 L237.5,45.4 L237.6,45.5 L237.7,45.6 L237.8,45.6 L237.9,45.7 L238.0,45.8 L238.1,45.8 L238.2,45.9 L238.3,46.0 L238.4,46.0 L238.5,46.1 L238.5,46.1 L238.6,46.2 L238.7,46.3 L238.8,46.3 L238.9,46.4 L239.0,46.4 L239.1,46.5 L239.2,46.6 L239.3,46.6 L239.4,46.7 L239.5,46.7 L239.6,46.8 L239.7,46.9 L239.7,46.9 L239.8,47.0 L239.9,47.0 L240.0,47.1 L240.1,47.2 L240.2,47.2 L240.3,47.3 L240.4,47.3 L240.5,47.4 L240.6,47.4 L240.7,47.5 L240.8,47.5 L240.9,47.6 L240.9,47.7 L241.0,47.7 L241.1,47.8 L241.2,47.8 L241.3,47.9 L241.4,47.9 L241.5,48.0 L241.6,48.0 L241.7,48.1 L241.8,48.1 L241.9,48.2 L242.0,48.2 L242.1,48.3 L242.2,48.3 L242.2,48.4 L242.3,48.5 L242.4,48.5 L242.5,48.6 L242.6,48.6 L242.7,48.7 L242.8,48.7 L242.9,48.8 L243.0,48.8 L243.1,48.9 L243.2,48.9 L243.3,49.0 L243.4,49.0 L243.4,49.1 L243.5,49.1 L243.6,49.2 L243.7,49.2 L243.8,49.3 L243.9,49.3 L244.0,49.3 L244.1,49.4 L244.2,49.4 L244.3,49.5 L244.4,49.5 L244.5,49.6 L244.6,49.6 L244.7,49.7 L244.7,49.7 L244.8,49.8 L244.9,49.8 L245.0,49.9 L245.1,49.9 L245.2,50.0 L245.3,50.0 L245.4,50.0 L245.5,50.1 L245.6,50.1 L245.7,50.2 L245.8,50.2 L245.9,50.3 L245.9,50.3 L246.0,50.4 L246.1,50.4 L246.2,50.5 L246.3,50.5 L246.4,50.5 L246.5,50.6 L246.6,50.6 L246.7,50.7 L246.8,50.7 L246.9,50.8 L247.0,50.8 L247.1,50.8 L247.1,50.9 L247.2,50.9 L247.3,51.0 L247.4,51.0 L247.5,51.1 L247.6,51.1 L247.7,51.1 L247.8,51.2 L247.9,51.2 L248.0,51.3 L248.1,51.3 L248.2,51.3 L248.3,51.4 L248.3,51.4 L248.4,51.5 L248.5,51.5 L248.6,51.5 L248.7,51.6 L248.8,51.6 L248.9,51.7 L249.0,51.7 L249.1,51.7 L249.2,51.8 L249.3,51.8 L249.4,51.9 L249.5,51.9 L249.6,51.9 L249.6,52.0 L249.7,52.0 L249.8,52.1 L249.9,52.1 L250.0,52.1 L250.1,52.2 L250.2,52.2 L250.3,52.2 L250.4,52.3 L250.5,52.3 L250.6,52.4 L250.7,52.4 L250.8,52.4 L250.8,52.5 L250.9,52.5 L251.0,52.5 L251.1,52.6 L251.2,52.6 L251.3,52.7 L251.4,52.7 L251.5,52.7 L251.6,52.8 L251.7,52.8 L251.8,52.8 L251.9,52.9 L252.0,52.9 L252.1,52.9 L252.1,53.0 L252.2,53.0 L252.3,53.1 L252.4,53.1 L252.5,53.1 L252.6,53.2 L252.7,53.2 L252.8,53.2 L252.9,53.3 L253.0,53.3 L253.1,53.3 L253.2,53.4 L253.3,53.4 L253.3,53.4 L253.4,53.5 L253.5,53.5 L253.6,53.5 L253.7,53.6 L253.8,53.6 L253.9,53.6 L254.0,53.7 L254.1,53.7 L254.2,53.7 L254.3,53.8 L254.4,53.8 L254.5,53.8 L254.5,53.9 L254.6,53.9 L254.7,53.9 L254.8,54.0 L254.9,54.0 L255.0,54.0 L255.1,54.1 L255.2,54.1 L255.3,54.1 L255.4,54.2 L255.5,54.2 L255.6,54.2 L255.7,54.3 L255.8,54.3 L255.8,54.3 L255.9,54.4 L256.0,54.4 L256.1,54.4 L256.2,54.5 L256.3,54.5 L256.4,54.5 L256.5,54.5 L256.6,54.6 L256.7,54.6 L256.8,54.6 L256.9,54.7 L257.0,54.7 L257.0,54.7 L257.1,54.8 L257.2,54.8 L257.3,54.8 L257.4,54.8 L257.5,54.9 L257.6,54.9 L257.7,54.9 L257.8,55.0 L257.9,55.0 L258.0,55.0 L258.1,55.1 L258.2,55.1 L258.2,55.1 L258.3,55.1 L258.4,55.2 L258.5,55.2 L258.6,55.2 L258.7,55.3 L258.8,55.3 L258.9,55.3 L259.0,55.4 L259.1,55.4 L259.2,55.4 L259.3,55.4 L259.4,55.5 L259.4,55.5 L259.5,55.5 L259.6,55.5 L259.7,55.6 L259.8,55.6 L259.9,55.6 L260.0,55.7 L260.1,55.7 L260.2,55.7 L260.3,55.7 L260.4,55.8 L260.5,55.8 L260.6,55.8 L260.7,55.9 L260.7,55.9 L260.8,55.9 L260.9,55.9 L261.0,56.0 L261.1,56.0 L261.2,56.0 L261.3,56.0 L261.4,56.1 L261.5,56.1 L261.6,56.1 L261.7,56.2 L261.8,56.2 L261.9,56.2 L261.9,56.2 L262.0,56.3 L262.1,56.3 L262.2,56.3 L262.3,56.3 L262.4,56.4 L262.5,56.4 L262.6,56.4 L262.7,56.4 L262.8,56.5 L262.9,56.5 L263.0,56.5 L263.1,56.5 L263.1,56.6 L263.2,56.6 L263.3,56.6 L263.4,56.7 L263.5,56.7 L263.6,56.7 L263.7,56.7 L263.8,56.8 L263.9,56.8 L264.0,56.8 L264.1,56.8 L264.2,56.9 L264.3,56.9 L264.4,56.9 L264.4,56.9 L264.5,57.0 L264.6,57.0 L264.7,57.0 L264.8,57.0 L264.9,57.1 L265.0,57.1 L265.0,57.1 L265.1,56.1 L265.2,55.1 L265.3,54.1 L265.4,53.1 L265.5,52.2 L265.6,51.2 L265.6,50.3 L265.7,49.3 L265.8,48.4 L265.9,47.5 L266.0,46.6 L266.1,45.7 L266.2,44.8 L266.3,43.9 L266.4,43.0 L266.5,42.1 L266.6,41.2 L266.7,40.4 L266.8,39.5 L266.9,38.6 L266.9,38.7 L267.0,38.8 L267.1,39.0 L267.2,39.1 L267.3,39.2 L267.4,39.3 L267.5,39.4 L267.6,39.5 L267.7,39.6 L267.8,39.7 L267.9,39.7 L268.0,39.8 L268.1,39.9 L268.1,40.0 L268.2,40.1 L268.3,40.2 L268.4,40.3 L268.5,40.4 L268.6,40.5 L268.7,40.6 L268.8,40.7 L268.9,40.8 L269.0,40.9 L269.1,41.0 L269.2,41.0 L269.3,41.1 L269.3,41.2 L269.4,41.3 L269.5,41.4 L269.6,41.5 L269.7,41.6 L269.8,41.7 L269.9,41.7 L270.0,41.8 L270.1,41.9 L270.2,42.0 L270.3,42.1 L270.4,42.2 L270.5,42.2 L270.6,42.3 L270.6,42.4 L270.7,42.5 L270.8,42.6 L270.9,42.6 L271.0,42.7 L271.1,42.8 L271.2,42.9 L271.3,43.0 L271.4,43.0 L271.5,43.1 L271.6,43.2 L271.7,43.3 L271.8,43.3 L271.8,43.4 L271.9,43.5 L272.0,43.6 L272.1,43.6 L272.2,43.7 L272.3,43.8 L272.4,43.9 L272.5,43.9 L272.6,44.0 L272.7,44.1 L272.8,44.2 L272.9,44.2 L273.0,44.3 L273.0,44.4 L273.1,44.4 L273.2,44.5 L273.3,44.6 L273.4,44.6 L273.5,44.7 L273.6,44.8 L273.7,44.9 L273.8,44.9 L273.9,45.0 L274.0,45.1 L274.1,45.1 L274.2,45.2 L274.3,45.3 L274.3,45.3 L274.4,45.4 L274.5,45.4 L274.6,45.5 L274.7,45.6 L274.8,45.6 L274.9,45.7 L275.0,45.8 L275.1,45.8 L275.2,45.9 L275.3,46.0 L275.4,46.0 L275.5,46.1 L275.5,46.1 L275.6,46.2 L275.7,46.3 L275.8,46.3 L275.9,46.4 L276.0,46.4 L276.1,46.5 L276.2,46.6 L276.3,46.6 L276.4,46.7 L276.5,46.7 L276.6,46.8 L276.7,46.9 L276.7,46.9 L276.8,47.0 L276.9,47.0 L277.0,47.1 L277.1,47.2 L277.2,47.2 L277.3,47.3 L277.4,47.3 L277.5,47.4 L277.6,47.4 L277.7,47.5 L277.8,47.5 L277.9,47.6 L277.9,47.7 L278.0,47.7 L278.1,47.8 L278.2,47.8 L278.3,47.9 L278.4,47.9 L278.5,48.0 L278.6,48.0 L278.7,48.1 L278.8,48.1 L278.9,48.2 L279.0,48.2 L279.1,48.3 L279.2,48.3 L279.2,48.4 L279.3,48.5 L279.4,48.5 L279.5,48.6 L279.6,48.6 L279.7,48.7 L279.8,48.7 L279.9,48.8 L280.0,48.8 L280.1,48.9 L280.2,48.9 L280.3,49.0 L280.4,49.0 L280.4,49.1 L280.5,49.1 L280.6,49.2 L280.7,49.2 L280.8,49.3 L280.9,49.3 L281.0,49.3 L281.1,49.4 L281.2,49.4 L281.3,49.5 L281.4,49.5 L281.5,49.6 L281.6,49.6 L281.6,49.7 L281.7,49.7 L281.8,49.8 L281.9,49.8 L282.0,49.9 L282.1,49.9 L282.2,50.0 L282.3,50.0 L282.4,50.0 L282.5,50.1 L282.6,50.1 L282.7,50.2 L282.8,50.2 L282.9,50.3 L282.9,50.3 L283.0,50.4 L283.1,50.4 L283.2,50.5 L283.3,50.5 L283.4,50.5 L283.5,50.6 L283.6,50.6 L283.7,50.7 L283.8,50.7 L283.9,50.8 L284.0,50.8 L284.1,50.8 L284.1,50.9 L284.2,50.9 L284.3,51.0 L284.4,51.0 L284.5,51.1 L284.6,51.1 L284.7,51.1 L284.8,51.2 L284.9,51.2 L285.0,51.3 L285.1,51.3 L285.2,51.3 L285.3,51.4 L285.4,51.4 L285.4,51.5 L285.5,51.5 L285.6,51.5 L285.7,51.6 L285.8,51.6 L285.9,51.7 L286.0,51.7 L286.1,51.7 L286.2,51.8 L286.3,51.8 L286.4,51.9 L286.5,51.9 L286.6,51.9 L286.6,52.0 L286.7,52.0 L286.8,52.1 L286.9,52.1 L287.0,52.1 L287.1,52.2 L287.2,52.2 L287.3,52.2 L287.4,52.3 L287.5,52.3 L287.6,52.4 L287.7,52.4 L287.8,52.4 L287.8,52.5 L287.9,52.5 L288.0,52.5 L288.1,52.6 L288.2,52.6 L288.3,52.7 L288.4,52.7 L288.5,52.7 L288.6,52.8 L288.7,52.8 L288.8,52.8 L288.9,52.9 L289.0,52.9 L289.1,52.9 L289.1,53.0 L289.2,53.0 L289.3,53.1 L289.4,53.1 L289.5,53.1 L289.6,53.2 L289.7,53.2 L289.8,53.2 L289.9,53.3 L290.0,53.3 L290.1,53.3 L290.2,53.4 L290.3,53.4 L290.3,53.4 L290.4,53.5 L290.5,53.5 L290.6,53.5 L290.7,53.6 L290.8,53.6 L290.9,53.6 L291.0,53.7 L291.1,53.7 L291.2,53.7 L291.3,53.8 L291.4,53.8 L291.5,53.8 L291.5,53.9 L291.6,53.9 L291.7,53.9 L291.8,54.0 L291.9,54.0 L292.0,54.0 L292.1,54.1 L292.2,54.1 L292.3,54.1 L292.4,54.2 L292.5,54.2 L292.6,54.2 L292.7,54.3 L292.8,54.3 L292.8,54.3 L292.9,54.4 L293.0,54.4 L293.1,54.4 L293.2,54.5 L293.3,54.5 L293.4,54.5 L293.5,54.5 L293.6,54.6 L293.7,54.6 L293.8,54.6 L293.9,54.7 L294.0,54.7 L294.0,54.7 L294.1,54.8 L294.2,54.8 L294.3,54.8 L294.4,54.8 L294.5,54.9 L294.6,54.9 L294.7,54.9 L294.8,55.0 L294.9,55.0 L295.0,55.0 L295.1,55.1 L295.2,55.1 L295.2,55.1 L295.3,55.1 L295.4,55.2 L295.5,55.2 L295.6,55.2 L295.7,55.3 L295.8,55.3 L295.9,55.3 L296.0,55.4 L296.1,55.4 L296.2,55.4 L296.3,55.4 L296.4,55.5 L296.4,55.5 L296.5,55.5 L296.6,55.5 L296.7,55.6 L296.8,55.6 L296.9,55.6 L297.0,55.7 L297.1,55.7 L297.2,55.7 L297.3,55.7 L297.4,55.8 L297.5,55.8 L297.6,55.8 L297.7,55.9 L297.7,55.9 L297.8,55.9 L297.9,55.9 L298.0,56.0 L298.1,56.0 L298.2,56.0 L298.3,56.0 L298.4,56.1 L298.5,56.1 L298.6,56.1 L298.7,56.2 L298.8,56.2 L298.9,56.2 L298.9,56.2 L299.0,56.3 L299.1,56.3 L299.2,56.3 L299.3,56.3 L299.4,56.4 L299.5,56.4 L299.6,56.4 L299.7,56.4 L299.8,56.5 L299.9,56.5 L300.0,56.5 L300.1,56.5 L300.1,56.6 L300.2,56.6 L300.3,56.6 L300.4,56.7 L300.5,56.7 L300.6,56.7 L300.7,56.7 L300.8,56.8 L300.9,56.8 L301.0,56.8 L301.1,56.8 L301.2,56.9 L301.3,56.9 L301.4,56.9 L301.4,56.9 L301.5,57.0 L301.6,57.0 L301.7,57.0 L301.8,57.0 L301.9,57.1 L302.0,57.1" fill="none" stroke="#D55E00" stroke-width="1.1"/><text x="265" y="92" font-size="8" fill="#A84A00" text-anchor="middle" font-weight="normal">periodic T(t)</text><path d="M304,61 L310,61" fill="none" stroke="#AEB6BD" stroke-width="0.9" marker-end="url(#r1-hair)"/><rect x="312" y="32" width="88" height="58" rx="2" fill="#DBEBF4" stroke="#0072B2" stroke-width="1"/><text x="356" y="45" font-size="8.5" fill="#005B8F" text-anchor="middle" font-weight="bold">Detailed</text><text x="356" y="57" font-size="8" fill="#6E6E6E" text-anchor="middle" font-weight="normal">chemistry</text><text x="356" y="68" font-size="8" fill="#6E6E6E" text-anchor="middle" font-weight="normal">GRI-Mech 3.0</text><text x="356" y="79" font-size="8" fill="#6E6E6E" text-anchor="middle" font-weight="normal">X<tspan font-size="8" dy="1.9">qs</tspan><tspan dy="-1.9">​</tspan></text><path d="M402,61 L408,61" fill="none" stroke="#AEB6BD" stroke-width="0.9" marker-end="url(#r1-hair)"/><rect x="410" y="32" width="77" height="58" rx="2" fill="#F9E9DB" stroke="#D55E00" stroke-width="1"/><text x="448.5" y="45" font-size="8.5" fill="#A84A00" text-anchor="middle" font-weight="bold">GP correction</text><text x="448.5" y="57" font-size="8" fill="#6E6E6E" text-anchor="middle" font-weight="normal">δ<tspan font-size="8" dy="1.9">pred</tspan><tspan dy="-1.9">​</tspan>(z)</text><text x="448.5" y="68" font-size="8" fill="#6E6E6E" text-anchor="middle" font-weight="normal">X<tspan font-size="8" dy="1.9">pred</tspan><tspan dy="-1.9">​</tspan></text><text x="487" y="104" font-size="8" fill="#6E6E6E" text-anchor="end" font-weight="normal">z = [ logit X<tspan font-size="8" dy="1.9">qs</tspan><tspan dy="-1.9">​</tspan>,  log₁₀(P/τ),  duty,  T<tspan font-size="8" dy="1.9">peak</tspan><tspan dy="-1.9">​</tspan>,  T<tspan font-size="8" dy="1.9">min</tspan><tspan dy="-1.9">​</tspan> ]</text><text x="487" y="115" font-size="8" fill="#6E6E6E" text-anchor="end" font-weight="normal">X<tspan font-size="8" dy="1.9">pred</tspan><tspan dy="-1.9">​</tspan> = σ( logit X<tspan font-size="8" dy="1.9">qs</tspan><tspan dy="-1.9">​</tspan> + δ<tspan font-size="8" dy="1.9">pred</tspan><tspan dy="-1.9">​</tspan> )</text><text x="18" y="146" font-size="11" fill="#111111" text-anchor="start" font-weight="bold">b</text><text x="34" y="146" font-size="8.5" fill="#6E6E6E" text-anchor="start" font-weight="bold">Offline correction fit</text><rect x="112" y="152" width="106" height="50" rx="2" fill="#DBF1EB" stroke="#009E73" stroke-width="1"/><text x="165" y="165" font-size="8.5" fill="#00785A" text-anchor="middle" font-weight="bold">Transient CSTR</text><text x="165" y="177" font-size="8" fill="#6E6E6E" text-anchor="middle" font-weight="normal">same T(t)</text><text x="165" y="188" font-size="8" fill="#6E6E6E" text-anchor="middle" font-weight="normal">X<tspan font-size="8" dy="1.9">dyn</tspan><tspan dy="-1.9">​</tspan>, the truth</text><path d="M220,177 L240,177" fill="none" stroke="#AEB6BD" stroke-width="0.9" marker-end="url(#r1-hair)"/><rect x="242" y="152" width="128" height="50" rx="2" fill="#F9E9DB" stroke="#D55E00" stroke-width="1"/><text x="306" y="165" font-size="8.5" fill="#A84A00" text-anchor="middle" font-weight="bold">Correction target</text><text x="306" y="177" font-size="8" fill="#6E6E6E" text-anchor="middle" font-weight="normal">δ<tspan font-size="8" dy="1.9">true</tspan><tspan dy="-1.9">​</tspan> = logit X<tspan font-size="8" dy="1.9">dyn</tspan><tspan dy="-1.9">​</tspan></text><text x="306" y="188" font-size="8" fill="#6E6E6E" text-anchor="middle" font-weight="normal">− logit X<tspan font-size="8" dy="1.9">qs</tspan><tspan dy="-1.9">​</tspan></text><path d="M372,177 L392,177" fill="none" stroke="#AEB6BD" stroke-width="0.9" marker-end="url(#r1-hair)"/><rect x="394" y="152" width="93" height="50" rx="2" fill="#FFFFFF" stroke="#6E6E6E" stroke-width="0.8"/><text x="440.5" y="165" font-size="8.5" fill="#111111" text-anchor="middle" font-weight="bold">Fit GP</text><text x="440.5" y="177" font-size="8" fill="#6E6E6E" text-anchor="middle" font-weight="normal">194 fit, 48 test</text><text x="440.5" y="188" font-size="8" fill="#6E6E6E" text-anchor="middle" font-weight="normal">z → δ<tspan font-size="8" dy="1.9">pred</tspan><tspan dy="-1.9">​</tspan></text><path d="M265,106 L165,148" fill="none" stroke="#A84A00" stroke-width="0.8" stroke-dasharray="3 2"/><text x="196" y="131" font-size="8" fill="#A84A00" text-anchor="end" font-weight="normal">same trajectory</text><path d="M356,120 L356,148" fill="none" stroke="#A84A00" stroke-width="0.8" stroke-dasharray="3 2"/><text x="361" y="137" font-size="8" fill="#A84A00" text-anchor="start" font-weight="normal">same baseline</text><path d="M448,120 L448,148" fill="none" stroke="#A84A00" stroke-width="0.8" stroke-dasharray="3 2"/><text x="453" y="137" font-size="8" fill="#A84A00" text-anchor="start" font-weight="normal">fitted once</text><text x="18" y="256" font-size="11" fill="#111111" text-anchor="start" font-weight="bold">c</text><rect x="112" y="246" width="258" height="40" rx="2" fill="none" stroke="#AEB6BD" stroke-width="0.8" stroke-dasharray="3 2"/><text x="241" y="262" font-size="8.5" fill="#6E6E6E" text-anchor="middle" font-weight="bold">Interpretive model,  A → B → C</text><text x="241" y="275" font-size="8" fill="#6E6E6E" text-anchor="middle" font-weight="normal">same T(t),  trends only</text></svg>