<svg xmlns="http://www.w3.org/2000/svg" width="505pt" height="268pt" viewBox="0 0 505 268" font-family="Arial, Helvetica, sans-serif"><rect width="505" height="268" fill="#FFFFFF"/><defs><marker id="rst-scalar" viewBox="0 0 10 8" refX="9.4" refY="4" markerWidth="5" markerHeight="4" orient="auto"><path d="M0,0 L10,4 L0,8 Z" fill="#0072B2"/></marker><marker id="rst-field" viewBox="0 0 10 8" refX="9.4" refY="4" markerWidth="5" markerHeight="4" orient="auto"><path d="M0,0 L10,4 L0,8 Z" fill="#E69F00"/></marker><marker id="rst-thermal" viewBox="0 0 10 8" refX="9.4" refY="4" markerWidth="5" markerHeight="4" orient="auto"><path d="M0,0 L10,4 L0,8 Z" fill="#D55E00"/></marker><marker id="rst-gas" viewBox="0 0 10 8" refX="9.4" refY="4" markerWidth="5" markerHeight="4" orient="auto"><path d="M0,0 L10,4 L0,8 Z" fill="#009E73"/></marker><marker id="rst-grey" viewBox="0 0 10 8" refX="9.4" refY="4" markerWidth="5" markerHeight="4" orient="auto"><path d="M0,0 L10,4 L0,8 Z" fill="#6E6E6E"/></marker><marker id="rst-ink" viewBox="0 0 10 8" refX="9.4" refY="4" markerWidth="5" markerHeight="4" orient="auto"><path d="M0,0 L10,4 L0,8 Z" fill="#111111"/></marker><marker id="rst-rule" viewBox="0 0 10 8" refX="9.4" refY="4" markerWidth="5" markerHeight="4" orient="auto"><path d="M0,0 L10,4 L0,8 Z" fill="#BBBBBB"/></marker><marker id="rst-faint" viewBox="0 0 10 8" refX="9.4" refY="4" markerWidth="5" markerHeight="4" orient="auto"><path d="M0,0 L10,4 L0,8 Z" fill="#8A8A8A"/></marker><marker id="rst-hair" viewBox="0 0 10 8" refX="9.4" refY="4" markerWidth="5" markerHeight="4" orient="auto"><path d="M0,0 L10,4 L0,8 Z" fill="#AEB6BD"/></marker><marker id="rst-edge" viewBox="0 0 10 8" refX="9.4" refY="4" markerWidth="5" markerHeight="4" orient="auto"><path d="M0,0 L10,4 L0,8 Z" fill="#C9CFD5"/></marker></defs><rect x="66" y="30" width="240" height="202" rx="0" fill="#FFFFFF" stroke="#6E6E6E" stroke-width="0.8"/><text x="66" y="244" font-size="8" fill="#111111" text-anchor="middle" font-weight="normal">0.00</text><text x="61" y="235" font-size="8" fill="#111111" text-anchor="end" font-weight="normal">0.00</text><text x="126" y="244" font-size="8" fill="#111111" text-anchor="middle" font-weight="normal">0.25</text><text x="61" y="184.5" font-size="8" fill="#111111" text-anchor="end" font-weight="normal">0.25</text><text x="186" y="244" font-size="8" fill="#111111" text-anchor="middle" font-weight="normal">0.50</text><text x="61" y="134" font-size="8" fill="#111111" text-anchor="end" font-weight="normal">0.50</text><text x="246" y="244" font-size="8" fill="#111111" text-anchor="middle" font-weight="normal">0.75</text><text x="61" y="83.5" font-size="8" fill="#111111" text-anchor="end" font-weight="normal">0.75</text><text x="306" y="244" font-size="8" fill="#111111" text-anchor="middle" font-weight="normal">1.00</text><text x="61" y="33" font-size="8" fill="#111111" text-anchor="end" font-weight="normal">1.00</text><text x="186" y="256" font-size="8.5" fill="#111111" text-anchor="middle" font-weight="normal">acetylene yield (fraction of fed carbon)</text><text x="32" y="131" font-size="8.5" text-anchor="middle" transform="rotate(-90 32 131)">CO yield (fraction of fed carbon)</text><path d="M66,30 L306,232" fill="none" stroke="#BBBBBB" stroke-width="0.7" stroke-dasharray="4 3"/><text x="214.8" y="133.06" font-size="7.5" fill="#8A8A8A" text-anchor="start" font-weight="normal">all fed carbon</text><text x="214.8" y="142.06" font-size="7.5" fill="#8A8A8A" text-anchor="start" font-weight="normal">converted</text><circle cx="216.83384260865668" cy="175.49704836355488" r="1.6" fill="#8A8A8A"/><circle cx="215.7630960601781" cy="171.70719620522235" r="1.6" fill="#8A8A8A"/><circle cx="214.09894369899754" cy="167.76717392723464" r="1.6" fill="#8A8A8A"/><circle cx="210.45541371527827" cy="158.3854194882634" r="1.6" fill="#8A8A8A"/><circle cx="208.7968395021008" cy="156.7763432934694" r="1.6" fill="#8A8A8A"/><circle cx="207.55087427016963" cy="155.67407533936318" r="1.6" fill="#8A8A8A"/><circle cx="206.78134054249716" cy="151.47885249905238" r="1.6" fill="#8A8A8A"/><circle cx="205.72631168012796" cy="149.66808005015278" r="1.6" fill="#8A8A8A"/><circle cx="204.48867437754427" cy="147.74118160167265" r="1.6" fill="#8A8A8A"/><circle cx="193.19374989893862" cy="145.1320319788268" r="1.6" fill="#8A8A8A"/><circle cx="191.55841692914908" cy="138.06279414599638" r="1.6" fill="#8A8A8A"/><circle cx="187.0448169546576" cy="134.47819194689265" r="1.6" fill="#8A8A8A"/><circle cx="184.5393392723312" cy="131.304547661769" r="1.6" fill="#8A8A8A"/><circle cx="182.53874258108112" cy="128.83035942148618" r="1.6" fill="#8A8A8A"/><circle cx="180.94572510481967" cy="126.32181449746707" r="1.6" fill="#8A8A8A"/><circle cx="168.37687344389792" cy="121.9725240342952" r="1.6" fill="#8A8A8A"/><circle cx="164.92349509477515" cy="117.65736408855955" r="1.6" fill="#8A8A8A"/><circle cx="162.16197309134094" cy="110.24534217823357" r="1.6" fill="#8A8A8A"/><circle cx="156.04267336142658" cy="106.56153945282874" r="1.6" fill="#8A8A8A"/><circle cx="153.44778950777646" cy="103.65942791602072" r="1.6" fill="#8A8A8A"/><circle cx="144.8231175010073" cy="100.83391663751695" r="1.6" fill="#8A8A8A"/><circle cx="142.90488547005526" cy="90.61700992026474" r="1.6" fill="#8A8A8A"/><circle cx="135.91020242905972" cy="88.85219701374731" r="1.6" fill="#8A8A8A"/><circle cx="133.80922603527466" cy="87.59466864552908" r="1.6" fill="#8A8A8A"/><circle cx="131.29118695505935" cy="85.79613184104011" r="1.6" fill="#8A8A8A"/><circle cx="126.48270444006253" cy="82.21417161663766" r="1.6" fill="#8A8A8A"/><circle cx="121.18362557439764" cy="78.69320832317945" r="1.6" fill="#8A8A8A"/><circle cx="119.14460684347063" cy="75.77945131934078" r="1.6" fill="#8A8A8A"/><circle cx="118.08208717628764" cy="71.43507098466611" r="1.6" fill="#8A8A8A"/><circle cx="115.8524446995718" cy="69.18475190206823" r="1.6" fill="#8A8A8A"/><circle cx="107.97701952363568" cy="67.05581135172392" r="1.6" fill="#8A8A8A"/><circle cx="105.63321328791747" cy="65.78741787244778" r="1.6" fill="#8A8A8A"/><circle cx="103.49193114190612" cy="64.40130937048369" r="1.6" fill="#8A8A8A"/><circle cx="102.2785944062507" cy="62.22952653953524" r="1.6" fill="#8A8A8A"/><circle cx="100.86880355648671" cy="60.69724475574182" r="1.6" fill="#8A8A8A"/><circle cx="99.6379209562174" cy="58.799007972027425" r="1.6" fill="#8A8A8A"/><circle cx="97.74925908383389" cy="56.141889733784495" r="1.6" fill="#8A8A8A"/><circle cx="96.62375077465163" cy="54.94987761400296" r="1.6" fill="#8A8A8A"/><circle cx="91.33826040161537" cy="52.87097870626761" r="1.6" fill="#8A8A8A"/><circle cx="87.68489292263492" cy="51.06304124146817" r="1.6" fill="#8A8A8A"/><circle cx="83.68925846022404" cy="48.51582312227444" r="1.6" fill="#8A8A8A"/><circle cx="81.72377901081629" cy="47.617161004335856" r="1.6" fill="#8A8A8A"/><circle cx="80.92263720708189" cy="46.801798695410355" r="1.6" fill="#8A8A8A"/><circle cx="80.16622272057108" cy="45.77005303840917" r="1.6" fill="#8A8A8A"/><circle cx="79.31784724785852" cy="44.99984100928876" r="1.6" fill="#8A8A8A"/><circle cx="78.70158955872719" cy="44.248420591142064" r="1.6" fill="#8A8A8A"/><circle cx="77.76634312472963" cy="43.401037804407935" r="1.6" fill="#8A8A8A"/><circle cx="76.99639487628728" cy="42.35095061146944" r="1.6" fill="#8A8A8A"/><circle cx="76.35472002509489" cy="41.92590329853215" r="1.6" fill="#8A8A8A"/><circle cx="74.97294152105259" cy="40.84395110506182" r="1.6" fill="#8A8A8A"/><circle cx="74.30919211424798" cy="40.04740946282294" r="1.6" fill="#8A8A8A"/><circle cx="74.15421479422162" cy="39.4643522743697" r="1.6" fill="#8A8A8A"/><circle cx="72.78767029582507" cy="38.899142406434464" r="1.6" fill="#8A8A8A"/><circle cx="72.17497623665767" cy="37.805614884683195" r="1.6" fill="#8A8A8A"/><circle cx="70.87229951515914" cy="37.048101725145784" r="1.6" fill="#8A8A8A"/><circle cx="70.33935471346241" cy="36.02077349000817" r="1.6" fill="#8A8A8A"/><circle cx="68.89884210948387" cy="34.88763875883899" r="1.6" fill="#8A8A8A"/><circle cx="68.02333013590633" cy="33.82367375781402" r="1.6" fill="#8A8A8A"/><circle cx="67.75186094418683" cy="33.33494900945519" r="1.6" fill="#8A8A8A"/><circle cx="66.74204336322231" cy="31.843824829348932" r="1.6" fill="#8A8A8A"/><circle cx="141.85831281154248" cy="99.85283030314952" r="3.2" fill="none" stroke="#111111" stroke-width="0.9"/><circle cx="75.26110214097291" cy="40.7147754304751" r="3.2" fill="none" stroke="#111111" stroke-width="0.9"/><circle cx="137.1833522543575" cy="91.41266569411468" r="3.2" fill="none" stroke="#111111" stroke-width="0.9"/><circle cx="90.79983763856336" cy="52.04918832788675" r="3.2" fill="none" stroke="#111111" stroke-width="0.9"/><circle cx="69.38098944034928" cy="33.84991929613943" r="3.2" fill="none" stroke="#111111" stroke-width="0.9"/><circle cx="95.15926922880661" cy="57.63228210909449" r="3.2" fill="none" stroke="#111111" stroke-width="0.9"/><circle cx="160.1180114639463" cy="111.41930267222227" r="3.2" fill="none" stroke="#111111" stroke-width="0.9"/><circle cx="72.99820189580471" cy="37.950174043874284" r="3.2" fill="none" stroke="#111111" stroke-width="0.9"/><circle cx="215.5227966852122" cy="174.29845934861527" r="3.2" fill="none" stroke="#111111" stroke-width="0.9"/><circle cx="183.77198224463" cy="131.3310007965223" r="3.2" fill="none" stroke="#111111" stroke-width="0.9"/><circle cx="115.65826703239122" cy="74.63590143057661" r="3.2" fill="none" stroke="#111111" stroke-width="0.9"/><circle cx="113.1995633023492" cy="72.05515839235429" r="3.2" fill="none" stroke="#111111" stroke-width="0.9"/><circle cx="160.68178887414322" cy="111.33532510641268" r="3.2" fill="none" stroke="#111111" stroke-width="0.9"/><circle cx="207.97330331697685" cy="155.14620658366997" r="3.2" fill="none" stroke="#111111" stroke-width="0.9"/><circle cx="81.33809844628206" cy="47.76700924134562" r="3.2" fill="none" stroke="#111111" stroke-width="0.9"/><circle cx="77.87604571578557" cy="43.68732083686996" r="3.2" fill="none" stroke="#111111" stroke-width="0.9"/><circle cx="208.03019147841155" cy="151.31836772206765" r="3.2" fill="none" stroke="#111111" stroke-width="0.9"/><circle cx="163.31750574995863" cy="116.57382803479857" r="3.2" fill="none" stroke="#111111" stroke-width="0.9"/><circle cx="216.83384260865668" cy="175.49704836355488" r="4.4" fill="#0072B2"/><circle cx="158.57975462413674" cy="108.85259253886919" r="4.4" fill="#009E73"/><circle cx="66.74204336322231" cy="31.843824829348932" r="4.4" fill="#D55E00"/><circle cx="330" cy="43" r="4.4" fill="#0072B2"/><text x="340" y="46" font-size="8" fill="#005B8F" text-anchor="start" font-weight="bold">want acetylene:</text><text x="340" y="56" font-size="8" fill="#6E6E6E" text-anchor="start" font-weight="normal">flow fast (τ 10 ms), CH₄-rich</text><text x="340" y="66" font-size="8" fill="#6E6E6E" text-anchor="start" font-weight="normal">6.8 g/h per element</text><circle cx="330" cy="93" r="4.4" fill="#009E73"/><text x="340" y="96" font-size="8" fill="#00785A" text-anchor="start" font-weight="bold">want both:</text><text x="340" y="106" font-size="8" fill="#6E6E6E" text-anchor="start" font-weight="normal">τ 2.3 s, CH₄:CO₂ 2.3:1</text><text x="340" y="116" font-size="8" fill="#6E6E6E" text-anchor="start" font-weight="normal">4.1 g/h C₂H₂ + CO stream</text><circle cx="330" cy="143" r="4.4" fill="#D55E00"/><text x="340" y="146" font-size="8" fill="#A84A00" text-anchor="start" font-weight="bold">want syngas CO:</text><text x="340" y="156" font-size="8" fill="#6E6E6E" text-anchor="start" font-weight="normal">flow slow (τ 10 s), 1:1 feed</text><text x="340" y="166" font-size="8" fill="#6E6E6E" text-anchor="start" font-weight="normal">99 % of carbon to CO</text><circle cx="330" cy="189" r="3.2" fill="none" stroke="#111111" stroke-width="0.9"/><text x="340" y="192" font-size="8" fill="#6E6E6E" text-anchor="start" font-weight="normal">rings: re-solved with full</text><text x="340" y="202" font-size="8" fill="#6E6E6E" text-anchor="start" font-weight="normal">chemistry; lands within 0.03</text><text x="340" y="218" font-size="8" fill="#6E6E6E" text-anchor="start" font-weight="normal">yield-only frontier, energy-blind:</text><text x="340" y="228" font-size="8" fill="#6E6E6E" text-anchor="start" font-weight="normal">high duty and near-steady T win</text><text x="340" y="238" font-size="8" fill="#6E6E6E" text-anchor="start" font-weight="normal">here; the energy plate differs</text></svg>