<svg xmlns="http://www.w3.org/2000/svg" width="505pt" height="274pt" viewBox="0 0 505 274" font-family="Arial, Helvetica, sans-serif"><rect width="505" height="274" fill="#FFFFFF"/><defs><marker id="s8-scalar" viewBox="0 0 10 8" refX="9.4" refY="4" markerWidth="5" markerHeight="4" orient="auto"><path d="M0,0 L10,4 L0,8 Z" fill="#0072B2"/></marker><marker id="s8-field" viewBox="0 0 10 8" refX="9.4" refY="4" markerWidth="5" markerHeight="4" orient="auto"><path d="M0,0 L10,4 L0,8 Z" fill="#E69F00"/></marker><marker id="s8-thermal" viewBox="0 0 10 8" refX="9.4" refY="4" markerWidth="5" markerHeight="4" orient="auto"><path d="M0,0 L10,4 L0,8 Z" fill="#D55E00"/></marker><marker id="s8-gas" viewBox="0 0 10 8" refX="9.4" refY="4" markerWidth="5" markerHeight="4" orient="auto"><path d="M0,0 L10,4 L0,8 Z" fill="#009E73"/></marker><marker id="s8-grey" viewBox="0 0 10 8" refX="9.4" refY="4" markerWidth="5" markerHeight="4" orient="auto"><path d="M0,0 L10,4 L0,8 Z" fill="#6E6E6E"/></marker><marker id="s8-ink" viewBox="0 0 10 8" refX="9.4" refY="4" markerWidth="5" markerHeight="4" orient="auto"><path d="M0,0 L10,4 L0,8 Z" fill="#111111"/></marker><marker id="s8-rule" viewBox="0 0 10 8" refX="9.4" refY="4" markerWidth="5" markerHeight="4" orient="auto"><path d="M0,0 L10,4 L0,8 Z" fill="#BBBBBB"/></marker><marker id="s8-faint" viewBox="0 0 10 8" refX="9.4" refY="4" markerWidth="5" markerHeight="4" orient="auto"><path d="M0,0 L10,4 L0,8 Z" fill="#8A8A8A"/></marker></defs><text x="18" y="22" font-size="11" fill="#111111" text-anchor="start" font-weight="bold">a</text><rect x="18" y="34" width="104" height="34" rx="2" fill="#E6F1F8" stroke="#0072B2" stroke-width="1"/><text x="70" y="48" font-size="9" fill="#0072B2" text-anchor="middle" font-weight="bold">Physical specification</text><text x="70" y="59" font-size="8" fill="#6E6E6E" text-anchor="middle" font-weight="normal">and its assumptions</text><path d="M122,51 L136,51" fill="none" stroke="#0072B2" stroke-width="0.9" marker-end="url(#s8-scalar)"/><rect x="137" y="34" width="82" height="34" rx="2" fill="#FFFFFF" stroke="#6E6E6E" stroke-width="1"/><text x="178" y="48" font-size="9" fill="#6E6E6E" text-anchor="middle" font-weight="bold">Implementation</text><text x="178" y="59" font-size="8" fill="#6E6E6E" text-anchor="middle" font-weight="normal">assisted</text><path d="M219,51 L233,51" fill="none" stroke="#6E6E6E" stroke-width="0.9" marker-end="url(#s8-grey)"/><rect x="234" y="34" width="96" height="34" rx="2" fill="#FFFFFF" stroke="#6E6E6E" stroke-width="1"/><text x="282" y="48" font-size="9" fill="#6E6E6E" text-anchor="middle" font-weight="bold">Independent review</text><text x="282" y="59" font-size="8" fill="#6E6E6E" text-anchor="middle" font-weight="normal">a second model</text><path d="M330,51 L344,51" fill="none" stroke="#6E6E6E" stroke-width="0.9" marker-end="url(#s8-grey)"/><rect x="345" y="30" width="82" height="42" rx="2" fill="#FFFFFF" stroke="#111111" stroke-width="1.2"/><text x="386" y="45" font-size="9" fill="#111111" text-anchor="middle" font-weight="bold">Verification</text><text x="386" y="56" font-size="9" fill="#111111" text-anchor="middle" font-weight="bold">gates</text><path d="M427,51 L441,51" fill="none" stroke="#009E73" stroke-width="0.9" marker-end="url(#s8-gas)"/><rect x="442" y="34" width="45" height="34" rx="2" fill="#E4F5EF" stroke="#009E73" stroke-width="1"/><text x="464.5" y="48" font-size="9" fill="#009E73" text-anchor="middle" font-weight="bold">Release</text><text x="464.5" y="59" font-size="8" fill="#6E6E6E" text-anchor="middle" font-weight="normal">versioned</text><text x="434" y="26" font-size="8" fill="#009E73" text-anchor="start" font-weight="normal">pass</text><path d="M386,72 L386,96 L178,96 L178,69" fill="none" stroke="#D55E00" stroke-width="1" marker-end="url(#s8-thermal)"/><text x="282" y="93" font-size="8" fill="#D55E00" text-anchor="middle" font-weight="normal">fail</text><text x="18" y="128" font-size="11" fill="#111111" text-anchor="start" font-weight="bold">b</text><rect x="232" y="172" width="118" height="40" rx="2" fill="#FBE9DF" stroke="#D55E00" stroke-width="1.2"/><text x="291" y="189" font-size="10" fill="#D55E00" text-anchor="middle" font-weight="bold">solver.js</text><text x="291" y="201" font-size="8" fill="#6E6E6E" text-anchor="middle" font-weight="normal">DOM-free numerical core</text><rect x="18" y="140" width="168" height="24" rx="2" fill="#FFFFFF" stroke="#0072B2" stroke-width="0.9"/><text x="26" y="150" font-size="8.5" fill="#0072B2" text-anchor="start" font-weight="bold">Material presets</text><text x="26" y="160" font-size="8" fill="#6E6E6E" text-anchor="start" font-weight="normal">temperature-dependent properties</text><path d="M186,152 L230,192" fill="none" stroke="#6E6E6E" stroke-width="0.8" marker-end="url(#s8-grey)"/><rect x="18" y="172" width="168" height="24" rx="2" fill="#FFFFFF" stroke="#E69F00" stroke-width="0.9"/><text x="26" y="182" font-size="8.5" fill="#E69F00" text-anchor="start" font-weight="bold">Geometry, wall, gas</text><text x="26" y="192" font-size="8" fill="#6E6E6E" text-anchor="start" font-weight="normal">the boundary-condition configuration</text><path d="M186,184 L230,192" fill="none" stroke="#6E6E6E" stroke-width="0.8" marker-end="url(#s8-grey)"/><rect x="18" y="204" width="168" height="24" rx="2" fill="#FFFFFF" stroke="#6E6E6E" stroke-width="0.9"/><text x="26" y="214" font-size="8.5" fill="#6E6E6E" text-anchor="start" font-weight="bold">Browser interface</text><text x="26" y="224" font-size="8" fill="#6E6E6E" text-anchor="start" font-weight="normal">inputs and outputs only</text><path d="M186,216 L230,192" fill="none" stroke="#6E6E6E" stroke-width="0.8" marker-end="url(#s8-grey)"/><rect x="18" y="236" width="168" height="24" rx="2" fill="#FFFFFF" stroke="#009E73" stroke-width="0.9" stroke-dasharray="3 2"/><text x="26" y="246" font-size="8.5" fill="#009E73" text-anchor="start" font-weight="bold">Verification suite</text><text x="26" y="256" font-size="8" fill="#6E6E6E" text-anchor="start" font-weight="normal">regression, conservation, benchmarks</text><path d="M186,248 L230,208" fill="none" stroke="#009E73" stroke-width="0.8" marker-end="url(#s8-gas)"/><path d="M350,192 L364,192" fill="none" stroke="#D55E00" stroke-width="0.9" marker-end="url(#s8-thermal)"/><rect x="365" y="166" width="108" height="52" rx="2" fill="#FFFFFF" stroke="#6E6E6E" stroke-width="0.9"/><text x="373" y="178" font-size="8" fill="#111111" text-anchor="start" font-weight="normal">2D field and diagnostics</text><text x="373" y="189" font-size="8" fill="#6E6E6E" text-anchor="start" font-weight="normal">loss partition, closure</text><text x="373" y="200" font-size="8" fill="#6E6E6E" text-anchor="start" font-weight="normal">CSV export</text><text x="373" y="211" font-size="8" fill="#6E6E6E" text-anchor="start" font-weight="normal">these figures</text></svg>