<svg xmlns="http://www.w3.org/2000/svg" width="505pt" height="254pt" viewBox="0 0 505 254" font-family="Arial, Helvetica, sans-serif"><rect width="505" height="254" fill="#FFFFFF"/><defs><marker id="s5-scalar" viewBox="0 0 10 8" refX="9.4" refY="4" markerWidth="5" markerHeight="4" orient="auto"><path d="M0,0 L10,4 L0,8 Z" fill="#0072B2"/></marker><marker id="s5-field" viewBox="0 0 10 8" refX="9.4" refY="4" markerWidth="5" markerHeight="4" orient="auto"><path d="M0,0 L10,4 L0,8 Z" fill="#E69F00"/></marker><marker id="s5-thermal" viewBox="0 0 10 8" refX="9.4" refY="4" markerWidth="5" markerHeight="4" orient="auto"><path d="M0,0 L10,4 L0,8 Z" fill="#D55E00"/></marker><marker id="s5-gas" viewBox="0 0 10 8" refX="9.4" refY="4" markerWidth="5" markerHeight="4" orient="auto"><path d="M0,0 L10,4 L0,8 Z" fill="#009E73"/></marker><marker id="s5-grey" viewBox="0 0 10 8" refX="9.4" refY="4" markerWidth="5" markerHeight="4" orient="auto"><path d="M0,0 L10,4 L0,8 Z" fill="#6E6E6E"/></marker><marker id="s5-ink" viewBox="0 0 10 8" refX="9.4" refY="4" markerWidth="5" markerHeight="4" orient="auto"><path d="M0,0 L10,4 L0,8 Z" fill="#111111"/></marker><marker id="s5-rule" viewBox="0 0 10 8" refX="9.4" refY="4" markerWidth="5" markerHeight="4" orient="auto"><path d="M0,0 L10,4 L0,8 Z" fill="#BBBBBB"/></marker><marker id="s5-faint" viewBox="0 0 10 8" refX="9.4" refY="4" markerWidth="5" markerHeight="4" orient="auto"><path d="M0,0 L10,4 L0,8 Z" fill="#8A8A8A"/></marker></defs><rect x="52" y="26" width="128" height="160" rx="0" fill="#FFFFFF" stroke="#6E6E6E" stroke-width="0.8"/><text x="16" y="18" font-size="11" fill="#111111" text-anchor="start" font-weight="bold">a</text><path d="M52,176 L180,176" fill="none" stroke="#EAEAEA" stroke-width="0.4"/><text x="48" y="179" font-size="8" fill="#6E6E6E" text-anchor="end" font-weight="normal">0</text><path d="M52,141 L180,141" fill="none" stroke="#EAEAEA" stroke-width="0.4"/><text x="48" y="144" font-size="8" fill="#6E6E6E" text-anchor="end" font-weight="normal">175</text><path d="M52,106 L180,106" fill="none" stroke="#EAEAEA" stroke-width="0.4"/><text x="48" y="109" font-size="8" fill="#6E6E6E" text-anchor="end" font-weight="normal">350</text><path d="M52,71 L180,71" fill="none" stroke="#EAEAEA" stroke-width="0.4"/><text x="48" y="74" font-size="8" fill="#6E6E6E" text-anchor="end" font-weight="normal">525</text><path d="M52,36 L180,36" fill="none" stroke="#EAEAEA" stroke-width="0.4"/><text x="48" y="39" font-size="8" fill="#6E6E6E" text-anchor="end" font-weight="normal">700</text><text x="62" y="198" font-size="8" fill="#111111" text-anchor="middle" font-weight="normal">0</text><text x="98" y="198" font-size="8" fill="#111111" text-anchor="middle" font-weight="normal">200</text><text x="134" y="198" font-size="8" fill="#111111" text-anchor="middle" font-weight="normal">400</text><text x="170" y="198" font-size="8" fill="#111111" text-anchor="middle" font-weight="normal">600</text><text x="116" y="210" font-size="8.5" fill="#111111" text-anchor="middle" font-weight="normal">time (s)</text><text x="22" y="106" font-size="8.5" text-anchor="middle" transform="rotate(-90 22 106)">element average (°C)</text><path d="M52,88.3 L180,88.3" fill="none" stroke="#6E6E6E" stroke-width="0.9" stroke-dasharray="3 2"/><text x="58" y="83.3" font-size="8" fill="#6E6E6E" text-anchor="start" font-weight="normal">steady 439 °C</text><path d="M62.09,144.18200000000002 L62.45,113.392 L62.81,108.61200000000001 L63.17,107.308 L63.53,106.52999999999999 L63.89,105.846 L64.25,105.196 L64.61,104.568 L64.97,103.95800000000001 L65.33,103.37 L65.69,102.8 L66.05,102.25 L66.41,101.716 L66.77,101.2 L67.13,100.702 L67.49,100.22200000000001 L67.85,99.75599999999999 L68.21,99.306 L68.57,98.872 L68.93,98.454 L69.29,98.05 L69.65,97.66 L70.01,97.284 L70.37,96.92200000000001 L70.73,96.572 L71.09,96.236 L71.45,95.912 L71.81,95.598 L72.17,95.298 L72.53,95.00800000000001 L72.89,94.73 L73.25,94.462 L73.61,94.204 L73.97,93.956 L74.33,93.71799999999999 L74.69,93.49 L75.05,93.27000000000001 L75.41,93.05799999999999 L75.77,92.856 L76.13,92.66 L76.49,92.474 L76.85,92.294 L77.21000000000001,92.122 L77.57,91.95800000000001 L77.93,91.8 L78.29,91.64800000000001 L78.65,91.502 L79.01,91.362 L79.37,91.22999999999999 L79.73,91.102 L80.09,90.978 L80.45,90.86000000000001 L80.81,90.748 L81.17,90.63999999999999 L81.53,90.538 L81.89,90.438 L82.25,90.34400000000001 L82.61,90.254 L82.97,90.16799999999999 L83.33,90.084 L83.69,90.004 L84.05,89.93 L84.41,89.856 L84.77,89.788 L85.13,89.72000000000001 L85.49,89.658 L85.85,89.596 L86.21,89.538 L86.57,89.48400000000001 L86.93,89.42999999999999 L87.28999999999999,89.38 L87.65,89.33 L88.01,89.284 L88.37,89.24 L88.73,89.198 L89.09,89.158 L89.45,89.118 L89.81,89.082 L90.17,89.046 L90.53,89.01200000000001 L90.89,88.98 L91.25,88.95 L91.61,88.92 L91.97,88.89200000000001 L92.33,88.866 L92.69,88.84 L93.05,88.816 L93.41,88.792 L93.77000000000001,88.77000000000001 L94.13,88.74799999999999 L94.49000000000001,88.728 L94.85,88.708 L95.21000000000001,88.69 L95.57,88.67200000000001 L95.93,88.65599999999999 L96.28999999999999,88.64 L96.65,88.624 L97.00999999999999,88.61 L97.37,88.596 L97.72999999999999,88.58200000000001 L98.09,88.56799999999998 L98.45,88.556 L98.81,88.546 L99.17,88.534 L99.53,88.524 L99.89,88.514 L100.25,88.50399999999999 L100.61,88.494 L100.97,88.486 L101.33000000000001,88.476 L101.69,88.46799999999999 L102.05000000000001,88.46000000000001 L102.41,88.454 L102.77000000000001,88.44600000000001 L103.13,88.44 L103.49000000000001,88.434 L103.85,88.428 L104.21000000000001,88.42200000000001 L104.57,88.416 L104.93,88.41 L105.28999999999999,88.40599999999999 L105.65,88.4 L106.00999999999999,88.396 L106.37,88.392 L106.73,88.38799999999999 L107.09,88.384 L107.45,88.38 L107.81,88.376 L108.17,88.37200000000001 L108.53,88.37 L108.89,88.366 L109.25,88.36200000000001 L109.61,88.36 L109.97,88.358 L110.33,88.354 L110.69,88.352 L111.05,88.35 L111.41,88.348 L111.77,88.346 L112.13,88.34400000000001 L112.49000000000001,88.342 L112.85,88.34 L113.21000000000001,88.338 L113.57,88.336 L113.93,88.334 L114.28999999999999,88.33200000000001 L114.65,88.33 L115.00999999999999,88.33 L115.37,88.32799999999999 L115.72999999999999,88.32600000000001 L116.09,88.32600000000001 L116.44999999999999,88.324 L116.81,88.324 L117.17,88.322 L117.53,88.322 L117.88999999999999,88.32000000000001 L118.25,88.32000000000001 L118.61,88.31799999999998 L118.97,88.31799999999998 L119.33000000000001,88.316 L119.69,88.316 L120.05,88.314 L120.41,88.314 L120.77000000000001,88.314 L121.13,88.31200000000001 L121.49,88.31200000000001 L121.85,88.31200000000001 L122.21000000000001,88.31200000000001 L122.57,88.31 L122.93,88.31 L123.28999999999999,88.31 L123.65,88.31 L124.01,88.30799999999999 L124.37,88.30799999999999 L124.72999999999999,88.30799999999999 L125.09,88.30799999999999 L125.45,88.30799999999999 L125.81,88.306 L126.17,88.306 L126.53,88.306 L126.89,88.306 L127.25,88.306 L127.61,88.306 L127.97,88.30399999999999 L128.32999999999998,88.30399999999999 L128.69,88.30399999999999 L129.05,88.30399999999999 L129.41,88.30399999999999 L129.76999999999998,88.30399999999999 L130.13,88.30399999999999 L130.49,88.30399999999999 L130.85,88.30399999999999 L131.21,88.302 L131.57,88.302 L131.93,88.302 L132.29000000000002,88.302 L132.65,88.302 L133.01,88.302 L133.37,88.302 L133.73000000000002,88.302 L134.09,88.302 L134.45,88.302 L134.81,88.302 L135.17000000000002,88.302 L135.53,88.302 L135.89,88.302 L136.25,88.302 L136.61,88.302 L136.97,88.3 L137.32999999999998,88.3 L137.69,88.3 L138.05,88.3 L138.41,88.3 L138.76999999999998,88.3 L139.13,88.3 L139.49,88.3 L139.85,88.3 L140.20999999999998,88.3 L140.57,88.3 L140.93,88.3 L141.29,88.3 L141.65,88.3 L142.01,88.3 L142.37,88.3 L142.73000000000002,88.3 L143.09,88.3 L143.45,88.3 L143.81,88.3 L144.17000000000002,88.3 L144.53,88.3 L144.89,88.3 L145.25,88.3 L145.61,88.3 L145.97,88.3 L146.32999999999998,88.3 L146.69,88.3 L147.05,88.3 L147.41000000000003,88.3 L147.76999999999998,88.3 L148.13,88.3 L148.49,88.3 L148.85000000000002,88.3 L149.20999999999998,88.3 L149.57,88.3 L149.93,88.3 L150.29000000000002,88.3 L150.64999999999998,88.3 L151.01,88.3 L151.37,88.3 L151.73000000000002,88.3 L152.08999999999997,88.3 L152.45,88.3 L152.81,88.3 L153.17000000000002,88.3 L153.53,88.3 L153.89,88.3 L154.25,88.3 L154.61,88.3 L154.97,88.3 L155.32999999999998,88.3 L155.69,88.3 L156.05,88.3 L156.41,88.3 L156.76999999999998,88.3 L157.13,88.3 L157.49,88.3 L157.85,88.3 L158.21,88.3 L158.57,88.3 L158.93,88.3 L159.29000000000002,88.3 L159.65,88.3 L160.01,88.3 L160.37,88.3 L160.73000000000002,88.3 L161.09,88.3 L161.45,88.3 L161.81,88.3 L162.17000000000002,88.3 L162.53,88.3 L162.89,88.3 L163.25,88.3 L163.61,88.3 L163.97,88.3 L164.32999999999998,88.3 L164.69,88.3 L165.05,88.3 L165.41,88.3 L165.76999999999998,88.3 L166.13,88.3 L166.49,88.3 L166.85,88.3 L167.20999999999998,88.3 L167.57,88.3 L167.93,88.3 L168.29,88.3 L168.65,88.3 L169.01,88.3 L169.37,88.3 L169.73000000000002,88.3 L170,88.3" fill="none" stroke="#D55E00" stroke-width="1.5"/><text x="58" y="156" font-size="8.5" fill="#D55E00" text-anchor="start" font-weight="bold">continuous, 6.93 V, 12.2 W</text><text x="58" y="167" font-size="8" fill="#6E6E6E" text-anchor="start" font-weight="normal">the enclosure sets the settling time</text><rect x="215" y="26" width="128" height="160" rx="0" fill="#FFFFFF" stroke="#6E6E6E" stroke-width="0.8"/><text x="179" y="18" font-size="11" fill="#111111" text-anchor="start" font-weight="bold">b</text><path d="M215,176 L343,176" fill="none" stroke="#EAEAEA" stroke-width="0.4"/><text x="211" y="179" font-size="8" fill="#6E6E6E" text-anchor="end" font-weight="normal">0</text><path d="M215,141 L343,141" fill="none" stroke="#EAEAEA" stroke-width="0.4"/><text x="211" y="144" font-size="8" fill="#6E6E6E" text-anchor="end" font-weight="normal">175</text><path d="M215,106 L343,106" fill="none" stroke="#EAEAEA" stroke-width="0.4"/><text x="211" y="109" font-size="8" fill="#6E6E6E" text-anchor="end" font-weight="normal">350</text><path d="M215,71 L343,71" fill="none" stroke="#EAEAEA" stroke-width="0.4"/><text x="211" y="74" font-size="8" fill="#6E6E6E" text-anchor="end" font-weight="normal">525</text><path d="M215,36 L343,36" fill="none" stroke="#EAEAEA" stroke-width="0.4"/><text x="211" y="39" font-size="8" fill="#6E6E6E" text-anchor="end" font-weight="normal">700</text><text x="225" y="198" font-size="8" fill="#111111" text-anchor="middle" font-weight="normal">0.0</text><text x="261" y="198" font-size="8" fill="#111111" text-anchor="middle" font-weight="normal">2.7</text><text x="297" y="198" font-size="8" fill="#111111" text-anchor="middle" font-weight="normal">5.3</text><text x="333" y="198" font-size="8" fill="#111111" text-anchor="middle" font-weight="normal">8.0</text><text x="279" y="210" font-size="8.5" fill="#111111" text-anchor="middle" font-weight="normal">time (s)</text><text x="185" y="106" font-size="8.5" text-anchor="middle" transform="rotate(-90 185 106)">element average (°C)</text><rect x="225" y="173" width="0.8" height="7" fill="#0072B2" fill-opacity="0.8"/><rect x="238.5" y="173" width="0.8" height="7" fill="#0072B2" fill-opacity="0.8"/><rect x="252" y="173" width="0.8" height="7" fill="#0072B2" fill-opacity="0.8"/><rect x="265.5" y="173" width="0.8" height="7" fill="#0072B2" fill-opacity="0.8"/><rect x="279" y="173" width="0.8" height="7" fill="#0072B2" fill-opacity="0.8"/><rect x="292.5" y="173" width="0.8" height="7" fill="#0072B2" fill-opacity="0.8"/><rect x="306" y="173" width="0.8" height="7" fill="#0072B2" fill-opacity="0.8"/><rect x="319.5" y="173" width="0.8" height="7" fill="#0072B2" fill-opacity="0.8"/><path d="M215,180 L343,180" fill="none" stroke="#0072B2" stroke-width="0.6"/><path d="M215,88.3 L343,88.3" fill="none" stroke="#6E6E6E" stroke-width="0.9" stroke-dasharray="3 2"/><text x="221" y="99.3" font-size="8" fill="#6E6E6E" text-anchor="start" font-weight="normal">continuous 439 °C</text><path d="M225.0675,82.738 L225.2025,71.98599999999998 L225.3375,61.68399999999998 L225.4725,51.782 L225.6075,42.19 L225.7425,38.196 L225.8775,39.54000000000002 L226.0125,40.84 L226.1475,42.107999999999976 L226.2825,43.346000000000004 L226.4175,44.559999999999974 L226.5525,45.75 L226.6875,46.920000000000016 L226.8225,48.07000000000001 L226.9575,49.19799999999999 L227.0925,50.30799999999999 L227.2275,51.402 L227.3625,52.476 L227.4975,53.532 L227.6325,54.572 L227.7675,55.596000000000004 L227.9025,56.603999999999985 L228.0375,57.59800000000001 L228.1725,58.57600000000001 L228.3075,59.542 L228.4425,60.492000000000004 L228.5775,61.42999999999999 L228.7125,62.355999999999995 L228.8475,63.26600000000002 L228.9825,64.166 L229.1175,65.05199999999999 L229.2525,65.926 L229.3875,66.79 L229.5225,67.64000000000001 L229.6575,68.48 L229.7925,69.30799999999999 L229.9275,70.124 L230.0625,70.92999999999999 L230.1975,71.726 L230.3325,72.51199999999999 L230.4675,73.28599999999999 L230.6025,74.052 L230.7375,74.806 L230.8725,75.552 L231.0075,76.288 L231.1425,77.014 L231.2775,77.72999999999999 L231.4125,78.438 L231.5475,79.138 L231.6825,79.82799999999999 L231.8175,80.51 L231.9525,81.18400000000001 L232.0875,81.848 L232.2225,82.504 L232.3575,83.154 L232.4925,83.794 L232.6275,84.428 L232.7625,85.05199999999999 L232.8975,85.67000000000002 L233.0325,86.27999999999999 L233.1675,86.882 L233.3025,87.47800000000001 L233.4375,88.066 L233.5725,88.648 L233.7075,89.222 L233.8425,89.79 L233.9775,90.35199999999999 L234.1125,90.90599999999999 L234.2475,91.45400000000001 L234.3825,91.99600000000001 L234.5175,92.53 L234.6525,93.06 L234.7875,93.582 L234.9225,94.098 L235.0575,94.61000000000001 L235.1925,95.114 L235.3275,95.614 L235.4625,96.106 L235.5975,96.594 L235.7325,97.07799999999999 L235.8675,97.556 L236.0025,98.02799999999999 L236.1375,98.49600000000001 L236.2725,98.96000000000001 L236.4075,99.42000000000002 L236.5425,99.87400000000001 L236.6775,100.322 L236.8125,100.768 L236.9475,101.20800000000001 L237.0825,101.644 L237.2175,102.074 L237.3525,102.502 L237.4875,102.924 L237.6225,103.342 L237.7575,103.75599999999999 L237.8925,104.166 L238.0275,104.572 L238.1625,104.97399999999999 L238.2975,105.37 L238.4325,105.764 L238.5675,99.904 L238.7025,88.426 L238.8375,77.474 L238.9725,66.974 L239.1075,56.88800000000002 L239.2425,52.55799999999999 L239.3775,53.668000000000006 L239.5125,54.738000000000014 L239.6475,55.778000000000006 L239.7825,56.79600000000001 L239.9175,57.794 L240.0525,58.77600000000001 L240.1875,59.74000000000001 L240.3225,60.69200000000001 L240.4575,61.627999999999986 L240.5925,62.55 L240.7275,63.459999999999994 L240.8625,64.356 L240.9975,65.24000000000001 L241.1325,66.112 L241.2675,66.97200000000001 L241.4025,67.82000000000001 L241.5375,68.658 L241.6725,69.48399999999998 L241.8075,70.298 L241.9425,71.102 L242.0775,71.894 L242.2125,72.67599999999999 L242.3475,73.44999999999999 L242.4825,74.212 L242.6175,74.964 L242.7525,75.706 L242.8875,76.44 L243.0225,77.164 L243.1575,77.878 L243.2925,78.58400000000002 L243.4275,79.28200000000001 L243.5625,79.97 L243.6975,80.648 L243.8325,81.32000000000001 L243.9675,81.982 L244.1025,82.636 L244.2375,83.28399999999999 L244.3725,83.92200000000001 L244.5075,84.55199999999999 L244.6425,85.176 L244.7775,85.79199999999999 L244.9125,86.39999999999999 L245.0475,87 L245.1825,87.594 L245.3175,88.17999999999999 L245.4525,88.76 L245.5875,89.332 L245.7225,89.898 L245.8575,90.458 L245.9925,91.00999999999999 L246.1275,91.556 L246.2625,92.096 L246.3975,92.62799999999999 L246.5325,93.15599999999999 L246.6675,93.676 L246.8025,94.192 L246.9375,94.7 L247.0725,95.20400000000001 L247.2075,95.702 L247.3425,96.192 L247.4775,96.67999999999999 L247.6125,97.16 L247.7475,97.63799999999999 L247.8825,98.108 L248.0175,98.576 L248.1525,99.038 L248.2875,99.496 L248.4225,99.94800000000001 L248.5575,100.396 L248.6925,100.83999999999999 L248.8275,101.27799999999999 L248.9625,101.712 L249.0975,102.142 L249.2325,102.568 L249.3675,102.99000000000001 L249.5025,103.40599999999999 L249.6375,103.818 L249.7725,104.228 L249.9075,104.632 L250.0425,105.03200000000001 L250.1775,105.42799999999998 L250.3125,105.82000000000001 L250.4475,106.208 L250.5825,106.592 L250.7175,106.972 L250.8525,107.348 L250.9875,107.72000000000001 L251.1225,108.088 L251.2575,108.452 L251.3925,108.81400000000001 L251.5275,109.17 L251.6625,109.524 L251.7975,109.874 L251.9325,110.22000000000001 L252.0675,104.16 L252.2025,92.44 L252.3375,81.322 L252.4725,70.67200000000001 L252.6075,60.446 L252.7425,56.032 L252.8775,57.09 L253.0125,58.10799999999999 L253.1475,59.10000000000001 L253.2825,60.06999999999999 L253.4175,61.022000000000006 L253.5525,61.957999999999984 L253.6875,62.878 L253.8225,63.78599999999999 L253.9575,64.678 L254.0925,65.55999999999999 L254.2275,66.428 L254.3625,67.28399999999999 L254.4975,68.128 L254.6325,68.95999999999998 L254.7675,69.782 L254.9025,70.59200000000001 L255.0375,71.39200000000001 L255.1725,72.18199999999999 L255.3075,72.95999999999998 L255.4425,73.72999999999999 L255.5775,74.488 L255.7125,75.236 L255.8475,75.976 L255.9825,76.70599999999999 L256.1175,77.42599999999999 L256.2525,78.138 L256.3875,78.83999999999999 L256.5225,79.534 L256.6575,80.21799999999999 L256.7925,80.894 L256.9275,81.562 L257.0625,82.22200000000001 L257.1975,82.874 L257.3325,83.51599999999999 L257.4675,84.152 L257.6025,84.78 L257.7375,85.4 L257.8725,86.012 L258.0075,86.618 L258.1425,87.216 L258.2775,87.806 L258.4125,88.39 L258.5475,88.96799999999999 L258.6825,89.538 L258.8175,90.10000000000001 L258.9525,90.658 L259.0875,91.20800000000001 L259.2225,91.75 L259.3575,92.28800000000001 L259.4925,92.82000000000001 L259.6275,93.34400000000001 L259.7625,93.862 L259.8975,94.37599999999999 L260.0325,94.882 L260.1675,95.382 L260.3025,95.878 L260.4375,96.368 L260.5725,96.852 L260.7075,97.33200000000001 L260.8425,97.806 L260.9775,98.27600000000001 L261.1125,98.74000000000001 L261.2475,99.202 L261.3825,99.65599999999999 L261.5175,100.108 L261.6525,100.55399999999999 L261.7875,100.99600000000001 L261.9225,101.43200000000002 L262.0575,101.866 L262.1925,102.29400000000001 L262.3275,102.71799999999999 L262.4625,103.136 L262.5975,103.55199999999999 L262.7325,103.962 L262.8675,104.37 L263.0025,104.772 L263.1375,105.17 L263.2725,105.566 L263.4075,105.956 L263.5425,106.342 L263.6775,106.724 L263.8125,107.102 L263.9475,107.478 L264.0825,107.848 L264.2175,108.214 L264.3525,108.578 L264.4875,108.938 L264.6225,109.294 L264.7575,109.646 L264.8925,109.994 L265.0275,110.338 L265.1625,110.67999999999999 L265.2975,111.018 L265.4325,111.35199999999999 L265.5675,105.24 L265.7025,93.45 L265.8375,82.29400000000001 L265.9725,71.604 L266.1075,61.34200000000001 L266.2425,56.903999999999996 L266.3775,57.95 L266.5125,58.957999999999984 L266.6475,59.93800000000002 L266.7825,60.896 L266.9175,61.836 L267.0525,62.75999999999999 L267.1875,63.67 L267.3225,64.566 L267.4575,65.44800000000001 L267.5925,66.31800000000001 L267.7275,67.176 L267.8625,68.022 L267.9975,68.856 L268.1325,69.67999999999999 L268.2675,70.492 L268.4025,71.294 L268.5375,72.08399999999999 L268.6725,72.86400000000002 L268.8075,73.63400000000001 L268.9425,74.394 L269.0775,75.144 L269.2125,75.884 L269.3475,76.61599999999999 L269.4825,77.336 L269.6175,78.05 L269.7525,78.752 L269.8875,79.448 L270.0225,80.134 L270.1575,80.81 L270.2925,81.48 L270.4275,82.13999999999999 L270.5625,82.792 L270.6975,83.436 L270.8325,84.074 L270.9675,84.702 L271.1025,85.324 L271.2375,85.93599999999999 L271.3725,86.542 L271.5075,87.142 L271.6425,87.734 L271.7775,88.31799999999998 L271.9125,88.896 L272.0475,89.46600000000001 L272.1825,90.03 L272.3175,90.588 L272.4525,91.138 L272.5875,91.684 L272.7225,92.22200000000001 L272.8575,92.75200000000001 L272.9925,93.27799999999999 L273.1275,93.798 L273.2625,94.312 L273.3975,94.818 L273.5325,95.32 L273.6675,95.81599999999999 L273.8025,96.306 L273.9375,96.792 L274.0725,97.272 L274.2075,97.74600000000001 L274.3425,98.21799999999999 L274.4775,98.682 L274.6125,99.144 L274.7475,99.6 L274.8825,100.05 L275.0175,100.498 L275.1525,100.94 L275.2875,101.37799999999999 L275.4225,101.81 L275.5575,102.24 L275.6925,102.664 L275.8275,103.084 L275.9625,103.5 L276.0975,103.912 L276.2325,104.318 L276.3675,104.72200000000001 L276.5025,105.12 L276.6375,105.516 L276.7725,105.90599999999999 L276.9075,106.29400000000001 L277.0425,106.676 L277.1775,107.05399999999999 L277.3125,107.42999999999999 L277.4475,107.80199999999999 L277.5825,108.16799999999999 L277.7175,108.53200000000001 L277.8525,108.892 L277.9875,109.248 L278.1225,109.6 L278.2575,109.95 L278.3925,110.29400000000001 L278.5275,110.636 L278.6625,110.974 L278.7975,111.31 L278.9325,111.642 L279.0675,105.516 L279.2025,93.706 L279.3375,82.538 L279.4725,71.84000000000002 L279.6075,61.57000000000001 L279.7425,57.126000000000005 L279.8775,58.168000000000006 L280.0125,59.172 L280.1475,60.14999999999999 L280.2825,61.103999999999985 L280.4175,62.042000000000016 L280.5525,62.96400000000001 L280.6875,63.870000000000005 L280.8225,64.76400000000001 L280.9575,65.644 L281.0925,66.50999999999999 L281.2275,67.36600000000001 L281.3625,68.21 L281.4975,69.042 L281.6325,69.862 L281.7675,70.67200000000001 L281.9025,71.47 L282.0375,72.258 L282.1725,73.03599999999999 L282.3075,73.804 L282.4425,74.562 L282.5775,75.31 L282.7125,76.048 L282.8475,76.77799999999999 L282.9825,77.496 L283.1175,78.20800000000001 L283.2525,78.90800000000002 L283.3875,79.602 L283.5225,80.286 L283.6575,80.96000000000001 L283.7925,81.628 L283.9275,82.286 L284.0625,82.938 L284.1975,83.58 L284.3325,84.214 L284.4675,84.84199999999998 L284.6025,85.462 L284.7375,86.072 L284.8725,86.678 L285.0075,87.27400000000002 L285.1425,87.86399999999999 L285.2775,88.448 L285.4125,89.024 L285.5475,89.59400000000001 L285.6825,90.15599999999999 L285.8175,90.712 L285.9525,91.262 L286.0875,91.80399999999999 L286.2225,92.33999999999999 L286.3575,92.87200000000001 L286.4925,93.396 L286.6275,93.914 L286.7625,94.42599999999999 L286.8975,94.932 L287.0325,95.432 L287.1675,95.926 L287.3025,96.416 L287.4375,96.9 L287.5725,97.37799999999999 L287.7075,97.85199999999999 L287.8425,98.322 L287.9775,98.786 L288.1125,99.246 L288.2475,99.702 L288.3825,100.152 L288.5175,100.59800000000001 L288.6525,101.03800000000001 L288.7875,101.476 L288.9225,101.908 L289.0575,102.33600000000001 L289.1925,102.758 L289.3275,103.178 L289.4625,103.592 L289.59749999999997,104.002 L289.7325,104.41 L289.8675,104.812 L290.0025,105.21 L290.1375,105.604 L290.2725,105.994 L290.4075,106.38 L290.5425,106.762 L290.6775,107.14 L290.8125,107.514 L290.9475,107.884 L291.0825,108.25 L291.2175,108.614 L291.3525,108.972 L291.4875,109.328 L291.6225,109.67999999999999 L291.7575,110.02799999999999 L291.8925,110.372 L292.02750000000003,110.714 L292.1625,111.05 L292.2975,111.384 L292.4325,111.716 L292.5675,105.586 L292.7025,93.77199999999999 L292.8375,82.6 L292.97249999999997,71.9 L293.1075,61.627999999999986 L293.2425,57.182 L293.3775,58.224000000000004 L293.5125,59.227999999999994 L293.6475,60.20400000000001 L293.7825,61.158 L293.9175,62.096000000000004 L294.0525,63.01600000000002 L294.1875,63.922 L294.3225,64.81400000000002 L294.4575,65.694 L294.5925,66.55999999999999 L294.7275,67.41400000000002 L294.8625,68.258 L294.9975,69.09 L295.1325,69.90999999999998 L295.2675,70.71800000000002 L295.40250000000003,71.516 L295.5375,72.304 L295.6725,73.082 L295.8075,73.848 L295.9425,74.606 L296.0775,75.352 L296.2125,76.09 L296.34749999999997,76.82000000000001 L296.4825,77.538 L296.6175,78.248 L296.7525,78.94800000000001 L296.8875,79.642 L297.0225,80.324 L297.1575,81 L297.2925,81.666 L297.4275,82.32400000000001 L297.5625,82.97399999999999 L297.6975,83.616 L297.8325,84.25200000000001 L297.9675,84.878 L298.1025,85.49600000000001 L298.2375,86.108 L298.3725,86.712 L298.5075,87.31 L298.6425,87.89999999999999 L298.77750000000003,88.48200000000001 L298.9125,89.058 L299.0475,89.626 L299.1825,90.188 L299.3175,90.74400000000001 L299.4525,91.29400000000001 L299.5875,91.836 L299.72249999999997,92.372 L299.8575,92.902 L299.9925,93.426 L300.1275,93.944 L300.2625,94.45599999999999 L300.3975,94.962 L300.5325,95.462 L300.6675,95.95599999999999 L300.8025,96.444 L300.9375,96.928 L301.0725,97.40599999999999 L301.2075,97.88 L301.3425,98.35000000000001 L301.4775,98.81400000000001 L301.6125,99.274 L301.7475,99.728 L301.8825,100.178 L302.0175,100.624 L302.15250000000003,101.064 L302.2875,101.50200000000001 L302.4225,101.934 L302.5575,102.36 L302.6925,102.784 L302.8275,103.202 L302.9625,103.618 L303.09749999999997,104.028 L303.2325,104.43400000000001 L303.3675,104.836 L303.5025,105.234 L303.6375,105.62799999999999 L303.7725,106.01599999999999 L303.9075,106.402 L304.0425,106.784 L304.1775,107.162 L304.3125,107.536 L304.4475,107.90599999999999 L304.5825,108.272 L304.7175,108.636 L304.8525,108.99400000000001 L304.9875,109.35 L305.1225,109.7 L305.2575,110.048 L305.3925,110.392 L305.52750000000003,110.73400000000001 L305.6625,111.072 L305.7975,111.404 L305.9325,111.736 L306.0675,105.606 L306.2025,93.79 L306.3375,82.618 L306.47249999999997,71.91600000000001 L306.6075,61.644000000000005 L306.7425,57.19800000000001 L306.8775,58.24000000000001 L307.0125,59.242000000000004 L307.1475,60.218 L307.2825,61.17399999999999 L307.4175,62.109999999999985 L307.5525,63.03 L307.6875,63.93599999999998 L307.8225,64.828 L307.9575,65.708 L308.0925,66.574 L308.2275,67.428 L308.3625,68.272 L308.4975,69.102 L308.6325,69.92200000000001 L308.7675,70.72999999999999 L308.90250000000003,71.52799999999999 L309.0375,72.31600000000002 L309.1725,73.09400000000001 L309.3075,73.86 L309.4425,74.618 L309.5775,75.36399999999999 L309.7125,76.10199999999999 L309.84749999999997,76.83 L309.9825,77.55000000000001 L310.1175,78.25999999999999 L310.2525,78.96 L310.3875,79.652 L310.5225,80.33600000000001 L310.6575,81.01 L310.7925,81.67599999999999 L310.9275,82.336 L311.0625,82.986 L311.1975,83.62799999999999 L311.3325,84.262 L311.4675,84.88799999999999 L311.6025,85.508 L311.7375,86.118 L311.8725,86.72200000000001 L312.0075,87.32000000000001 L312.1425,87.91 L312.27750000000003,88.492 L312.4125,89.068 L312.5475,89.63600000000001 L312.6825,90.19800000000001 L312.8175,90.754 L312.9525,91.30199999999999 L313.0875,91.846 L313.22249999999997,92.382 L313.3575,92.912 L313.4925,93.434 L313.6275,93.952 L313.7625,94.464 L313.8975,94.97000000000001 L314.0325,95.47 L314.1675,95.96400000000001 L314.3025,96.452 L314.4375,96.936 L314.5725,97.414 L314.7075,97.88799999999999 L314.8425,98.358 L314.9775,98.822 L315.1125,99.282 L315.2475,99.736 L315.3825,100.18599999999999 L315.5175,100.632 L315.65250000000003,101.072 L315.7875,101.508 L315.9225,101.94 L316.0575,102.368 L316.1925,102.79199999999999 L316.3275,103.21000000000001 L316.4625,103.62400000000001 L316.59749999999997,104.034 L316.7325,104.44 L316.8675,104.842 L317.0025,105.24 L317.1375,105.634 L317.2725,106.024 L317.4075,106.41 L317.5425,106.79199999999999 L317.6775,107.17 L317.8125,107.544 L317.9475,107.914 L318.0825,108.27999999999999 L318.2175,108.642 L318.3525,109 L318.4875,109.356 L318.6225,109.70800000000001 L318.7575,110.056 L318.8925,110.39999999999999 L319.02750000000003,110.74 L319.1625,111.078 L319.2975,111.41199999999999 L319.4325,111.74199999999999 L319.5675,105.61200000000001 L319.7025,93.796 L319.8375,82.62400000000001 L319.97249999999997,71.922 L320.1075,61.64800000000001 L320.2425,57.202 L320.3775,58.244 L320.5125,59.248000000000005 L320.6475,60.224000000000004 L320.7825,61.178 L320.9175,62.114000000000004 L321.0525,63.03399999999999 L321.1875,63.94000000000001 L321.3225,64.832 L321.4575,65.71199999999999 L321.5925,66.57799999999999 L321.7275,67.43199999999999 L321.8625,68.276 L321.9975,69.106 L322.1325,69.926 L322.2675,70.73599999999999 L322.40250000000003,71.53399999999999 L322.5375,72.32000000000001 L322.6725,73.098 L322.8075,73.864 L322.9425,74.622 L323.0775,75.37 L323.2125,76.106 L323.34749999999997,76.834 L323.4825,77.554 L323.6175,78.26400000000001 L323.7525,78.964 L323.8875,79.65599999999999 L324.0225,80.34 L324.1575,81.014 L324.2925,81.68 L324.4275,82.33800000000001 L324.5625,82.99 L324.6975,83.632 L324.8325,84.266 L324.9675,84.892 L325.1025,85.51 L325.2375,86.122 L325.3725,86.726 L325.5075,87.32400000000001 L325.6425,87.912 L325.77750000000003,88.49600000000001 L325.9125,89.07000000000001 L326.0475,89.64 L326.1825,90.202 L326.3175,90.75800000000001 L326.4525,91.306 L326.5875,91.84800000000001 L326.72249999999997,92.384 L326.8575,92.914 L326.9925,93.438 L327.1275,93.956 L327.2625,94.46799999999999 L327.3975,94.974 L327.5325,95.47200000000001 L327.6675,95.968 L327.8025,96.45599999999999 L327.9375,96.94 L328.0725,97.41799999999999 L328.2075,97.892 L328.3425,98.362 L328.4775,98.826 L328.6125,99.284 L328.7475,99.74 L328.8825,100.19 L329.0175,100.634 L329.15250000000003,101.076 L329.2875,101.512 L329.4225,101.944 L329.5575,102.372 L329.6925,102.79400000000001 L329.8275,103.214 L329.9625,103.628 L330.09749999999997,104.038 L330.2325,104.44400000000002 L330.3675,104.846 L330.5025,105.244 L330.6375,105.63799999999999 L330.7725,106.026 L330.9075,106.412 L331.0425,106.79400000000001 L331.1775,107.172 L331.3125,107.546 L331.4475,107.916 L331.5825,108.28200000000001 L331.7175,108.644 L331.8525,109.00399999999999 L331.9875,109.358 L332.1225,109.71000000000001 L332.2575,110.058 L332.3925,110.402 L332.52750000000003,110.74400000000001 L332.6625,111.08 L332.7975,111.414 L332.9325,111.744 L333,111.908" fill="none" stroke="#D55E00" stroke-width="1.2"/><text x="337" y="128" font-size="8.5" fill="#D55E00" text-anchor="end" font-weight="bold">peak 594 °C</text><text x="337" y="139" font-size="8.5" fill="#6E6E6E" text-anchor="end" font-weight="normal">mean 433 °C, swing 274 K</text><text x="221" y="156" font-size="8.5" fill="#0072B2" text-anchor="start" font-weight="bold">5 % duty, 1 s period, 31 V</text><text x="221" y="167" font-size="8" fill="#6E6E6E" text-anchor="start" font-weight="normal">τ = 0.64 s, same 12.2 W average</text><rect x="378" y="26" width="128" height="160" rx="0" fill="#FFFFFF" stroke="#6E6E6E" stroke-width="0.8"/><text x="342" y="18" font-size="11" fill="#111111" text-anchor="start" font-weight="bold">c</text><path d="M378,176 L506,176" fill="none" stroke="#EAEAEA" stroke-width="0.4"/><text x="374" y="179" font-size="8" fill="#6E6E6E" text-anchor="end" font-weight="normal">0</text><path d="M378,141 L506,141" fill="none" stroke="#EAEAEA" stroke-width="0.4"/><text x="374" y="144" font-size="8" fill="#6E6E6E" text-anchor="end" font-weight="normal">225</text><path d="M378,106 L506,106" fill="none" stroke="#EAEAEA" stroke-width="0.4"/><text x="374" y="109" font-size="8" fill="#6E6E6E" text-anchor="end" font-weight="normal">450</text><path d="M378,71 L506,71" fill="none" stroke="#EAEAEA" stroke-width="0.4"/><text x="374" y="74" font-size="8" fill="#6E6E6E" text-anchor="end" font-weight="normal">675</text><path d="M378,36 L506,36" fill="none" stroke="#EAEAEA" stroke-width="0.4"/><text x="374" y="39" font-size="8" fill="#6E6E6E" text-anchor="end" font-weight="normal">900</text><text x="388" y="198" font-size="8" fill="#111111" text-anchor="middle" font-weight="normal">0</text><text x="424" y="198" font-size="8" fill="#111111" text-anchor="middle" font-weight="normal">107</text><text x="460" y="198" font-size="8" fill="#111111" text-anchor="middle" font-weight="normal">215</text><text x="496" y="198" font-size="8" fill="#111111" text-anchor="middle" font-weight="normal">322</text><text x="442" y="210" font-size="8.5" fill="#111111" text-anchor="middle" font-weight="normal">time (s)</text><text x="348" y="106" font-size="8.5" text-anchor="middle" transform="rotate(-90 348 106)">element average (°C)</text><path d="M378,44.28784444444446 L506,44.28784444444446" fill="none" stroke="#6E6E6E" stroke-width="0.9" stroke-dasharray="3 2"/><text x="384" y="39.28784444444446" font-size="8" fill="#6E6E6E" text-anchor="start" font-weight="normal">steady 847 °C</text><path d="M402.2378881987578,36 L402.2378881987578,176" fill="none" stroke="#0072B2" stroke-width="0.8" stroke-dasharray="2 2"/><text x="406.2378881987578" y="48" font-size="8" fill="#0072B2" text-anchor="start" font-weight="normal">τ = 42 s</text><path d="M388.67080745341616,168.35133333333334 L391.35403726708074,151.192 L394.0372670807453,135.50733333333335 L396.72049689440996,121.25688888888888 L399.40372670807454,108.464 L402.0869565217391,97.15355555555556 L404.7701863354037,87.31466666666667 L407.45341614906835,78.90222222222222 L410.1366459627329,71.82755555555556 L412.8198757763975,65.97866666666667 L415.5031055900621,61.22022222222222 L418.18633540372673,57.406000000000006 L420.8695652173913,54.386666666666684 L423.5527950310559,52.02377777777778 L426.2360248447205,50.18822222222222 L428.9192546583851,48.775777777777776 L431.6024844720497,47.69155555555557 L434.2857142857143,46.865555555555574 L436.96894409937886,46.23555555555555 L439.6521739130435,45.75800000000001 L442.3354037267081,45.397111111111116 L445.01863354037266,45.123333333333335 L447.7018633540373,44.91644444444444 L450.3850931677019,44.7608888888889 L453.06832298136646,44.644222222222226 L455.75155279503105,44.55555555555554 L458.4347826086956,44.48866666666669 L461.11801242236027,44.43733333333333 L463.80124223602485,44.400000000000006 L466.48447204968943,44.370444444444416 L469.16770186335407,44.350222222222214 L471.85093167701865,44.33311111111112 L474.53416149068323,44.320666666666654 L477.2173913043478,44.31133333333332 L479.9006211180124,44.3051111111111 L482.58385093167703,44.30044444444445 L485.2670807453416,44.2957777777778 L487.9503105590062,44.29266666666666 L490.63354037267084,44.29111111111109 L493.3167701863354,44.28955555555555 L496,44.28799999999998" fill="none" stroke="#D55E00" stroke-width="1.5"/><text x="384" y="156" font-size="8.5" fill="#D55E00" text-anchor="start" font-weight="bold">SiC rod, switched on</text><text x="384" y="167" font-size="8" fill="#6E6E6E" text-anchor="start" font-weight="normal">τ is 42× the pulse period</text></svg>