<svg xmlns="http://www.w3.org/2000/svg" width="505pt" height="402pt" viewBox="0 0 505 402" font-family="Arial, Helvetica, sans-serif"><rect width="505" height="402" fill="#FFFFFF"/><defs><marker id="s6-scalar" viewBox="0 0 10 8" refX="9.4" refY="4" markerWidth="5" markerHeight="4" orient="auto"><path d="M0,0 L10,4 L0,8 Z" fill="#0072B2"/></marker><marker id="s6-field" viewBox="0 0 10 8" refX="9.4" refY="4" markerWidth="5" markerHeight="4" orient="auto"><path d="M0,0 L10,4 L0,8 Z" fill="#E69F00"/></marker><marker id="s6-thermal" viewBox="0 0 10 8" refX="9.4" refY="4" markerWidth="5" markerHeight="4" orient="auto"><path d="M0,0 L10,4 L0,8 Z" fill="#D55E00"/></marker><marker id="s6-gas" viewBox="0 0 10 8" refX="9.4" refY="4" markerWidth="5" markerHeight="4" orient="auto"><path d="M0,0 L10,4 L0,8 Z" fill="#009E73"/></marker><marker id="s6-grey" viewBox="0 0 10 8" refX="9.4" refY="4" markerWidth="5" markerHeight="4" orient="auto"><path d="M0,0 L10,4 L0,8 Z" fill="#6E6E6E"/></marker><marker id="s6-ink" viewBox="0 0 10 8" refX="9.4" refY="4" markerWidth="5" markerHeight="4" orient="auto"><path d="M0,0 L10,4 L0,8 Z" fill="#111111"/></marker><marker id="s6-rule" viewBox="0 0 10 8" refX="9.4" refY="4" markerWidth="5" markerHeight="4" orient="auto"><path d="M0,0 L10,4 L0,8 Z" fill="#BBBBBB"/></marker><marker id="s6-faint" viewBox="0 0 10 8" refX="9.4" refY="4" markerWidth="5" markerHeight="4" orient="auto"><path d="M0,0 L10,4 L0,8 Z" fill="#8A8A8A"/></marker></defs><rect x="151.7467239653778" y="34" width="75.25327603462219" height="150" fill="#FCF0DC"/><rect x="52" y="34" width="175" height="150" rx="0" fill="none" stroke="#6E6E6E" stroke-width="0.8"/><text x="16" y="26" font-size="11" fill="#111111" text-anchor="start" font-weight="bold">a</text><text x="66.02073166376" y="196" font-size="8" fill="#111111" text-anchor="middle" font-weight="normal">0.5</text><text x="110.108292665504" y="196" font-size="8" fill="#111111" text-anchor="middle" font-weight="normal">4</text><text x="154.195853667248" y="196" font-size="8" fill="#111111" text-anchor="middle" font-weight="normal">32</text><text x="198.283414668992" y="196" font-size="8" fill="#111111" text-anchor="middle" font-weight="normal">256</text><text x="139.5" y="208" font-size="8.5" fill="#111111" text-anchor="middle" font-weight="normal">aspect ratio L/D</text><text x="20" y="109" font-size="8.5" text-anchor="middle" transform="rotate(-90 20 109)">resistance (Ω)</text><path d="M52,174 L227,174" fill="none" stroke="#EAEAEA" stroke-width="0.4"/><text x="48" y="177" font-size="8" fill="#6E6E6E" text-anchor="end" font-weight="normal">10<tspan font-size="8" dy="-3.1">−2</tspan><tspan dy="3.1">​</tspan></text><path d="M52,148 L227,148" fill="none" stroke="#EAEAEA" stroke-width="0.4"/><text x="48" y="151" font-size="8" fill="#6E6E6E" text-anchor="end" font-weight="normal">10<tspan font-size="8" dy="-3.1">−1</tspan><tspan dy="3.1">​</tspan></text><path d="M52,122 L227,122" fill="none" stroke="#EAEAEA" stroke-width="0.4"/><text x="48" y="125" font-size="8" fill="#6E6E6E" text-anchor="end" font-weight="normal">10<tspan font-size="8" dy="-3.1">0</tspan><tspan dy="3.1">​</tspan></text><path d="M52,96 L227,96" fill="none" stroke="#EAEAEA" stroke-width="0.4"/><text x="48" y="99" font-size="8" fill="#6E6E6E" text-anchor="end" font-weight="normal">10<tspan font-size="8" dy="-3.1">1</tspan><tspan dy="3.1">​</tspan></text><path d="M52,70 L227,70" fill="none" stroke="#EAEAEA" stroke-width="0.4"/><text x="48" y="73" font-size="8" fill="#6E6E6E" text-anchor="end" font-weight="normal">10<tspan font-size="8" dy="-3.1">2</tspan><tspan dy="3.1">​</tspan></text><path d="M52,44 L227,44" fill="none" stroke="#EAEAEA" stroke-width="0.4"/><text x="48" y="47" font-size="8" fill="#6E6E6E" text-anchor="end" font-weight="normal">10<tspan font-size="8" dy="-3.1">3</tspan><tspan dy="3.1">​</tspan></text><path d="M66.02073166376,163.8775346127452 L68.46131140760109,162.13803701633907 L70.92067806377288,160.39883106492573 L73.36545656695186,158.65956885615418 L75.8259655987699,156.92027916568298 L78.26968655829305,155.18097778227485 L80.716585331008,153.44161052948033 L83.15716507484909,151.70230001193926 L85.61653173102088,149.96309414511308 L88.06131023419985,148.22374448321892 L90.50846390481573,146.48487218616526 L92.96554022554105,144.74510201161647 L95.41243899825601,143.0055737462471 L97.86246478155269,141.26671939115596 L100.31238539826889,139.52752464800102 L102.75716390144785,137.7880507549533 L105.21099630426806,136.04874023741226 L107.66139389278905,134.30946719213398 L110.108292665504,132.57024229700116 L112.55831844880069,130.8308187333551 L115.00823906551689,129.09154223708947 L117.45676575843555,127.35237675003788 L119.90684997151607,125.61300411951012 L122.35427293566073,123.87383157331485 L124.80414633275201,122.13449098042628 L127.25417211604868,120.39537637784267 L129.7019892915997,118.65573947322528 L132.15261942568355,116.91668252247412 L134.60103415294034,115.17750579527166 L137.05012660290873,113.4382998623609 L139.5,111.69881697551085 L141.94884525849295,109.95936659722668 L144.3988947055159,108.22013850020231 L146.84753610761675,106.48104547599382 L149.29688782018835,104.74157171014997 L151.7467239653778,103.00238962956567 L154.195853667248,101.26312274794711 L156.64528919635939,99.52379174733508 L159.0942225059515,97.78447558738225 L161.5438582726983,96.04525720098383 L163.9931588712169,94.30561245565062 L166.4425776326258,92.56624548609582 L168.891707334496,90.82705719457473 L171.3411428636074,89.0883792773632 L173.79033910823608,87.34872488911707 L176.2397119399463,85.60938301092887 L178.68901253846488,83.87030910924935 L181.13824537851417,82.1308496887104 L183.587561001744,80.3916974264568 L186.0368489647414,78.65229564045765 L188.4861927754841,76.9131022625798 L190.93544848370647,75.17385450799516 L193.38476186053808,73.43451338388942 L195.83409904576217,71.69529632214447 L198.283414668992,69.95604818996404 L200.7327026319894,68.21655649460706 L203.18204644273212,66.4774552252715 L205.63136071277924,64.73813765192979 L208.0806677004377,62.99873586593064 L210.52995271301015,61.259334210626456 L212.97926833623998,59.5202054604226" fill="none" stroke="#0072B2" stroke-width="1.5"/><rect x="386.7467239653778" y="34" width="75.25327603462222" height="150" fill="#FCF0DC"/><rect x="287" y="34" width="175" height="150" rx="0" fill="none" stroke="#6E6E6E" stroke-width="0.8"/><text x="251" y="26" font-size="11" fill="#111111" text-anchor="start" font-weight="bold">b</text><text x="301.02073166376" y="196" font-size="8" fill="#111111" text-anchor="middle" font-weight="normal">0.5</text><text x="345.108292665504" y="196" font-size="8" fill="#111111" text-anchor="middle" font-weight="normal">4</text><text x="389.195853667248" y="196" font-size="8" fill="#111111" text-anchor="middle" font-weight="normal">32</text><text x="433.283414668992" y="196" font-size="8" fill="#111111" text-anchor="middle" font-weight="normal">256</text><text x="374.5" y="208" font-size="8.5" fill="#111111" text-anchor="middle" font-weight="normal">aspect ratio L/D</text><text x="255" y="109" font-size="8.5" text-anchor="middle" transform="rotate(-90 255 109)">steady temperature (°C)</text><path d="M287,174 L462,174" fill="none" stroke="#EAEAEA" stroke-width="0.4"/><text x="283" y="177" font-size="8" fill="#6E6E6E" text-anchor="end" font-weight="normal">0</text><path d="M287,141.5 L462,141.5" fill="none" stroke="#EAEAEA" stroke-width="0.4"/><text x="283" y="144.5" font-size="8" fill="#6E6E6E" text-anchor="end" font-weight="normal">750</text><path d="M287,109 L462,109" fill="none" stroke="#EAEAEA" stroke-width="0.4"/><text x="283" y="112" font-size="8" fill="#6E6E6E" text-anchor="end" font-weight="normal">1500</text><path d="M287,76.5 L462,76.5" fill="none" stroke="#EAEAEA" stroke-width="0.4"/><text x="283" y="79.5" font-size="8" fill="#6E6E6E" text-anchor="end" font-weight="normal">2250</text><path d="M287,44 L462,44" fill="none" stroke="#EAEAEA" stroke-width="0.4"/><text x="283" y="47" font-size="8" fill="#6E6E6E" text-anchor="end" font-weight="normal">3000</text><rect x="340.17758158465267" y="122" width="73.59599017760564" height="52" fill="#FBE9DF" fill-opacity="0.7"/><path d="M287,57 L462,57" fill="none" stroke="#111111" stroke-width="1" stroke-dasharray="4 2"/><text x="291" y="67" font-size="8" fill="#111111" text-anchor="start" font-weight="normal">SiC decomposition</text><path d="M287,122 L462,122" fill="none" stroke="#D55E00" stroke-width="1" stroke-dasharray="4 2"/><text x="291" y="118" font-size="8" fill="#D55E00" text-anchor="start" font-weight="bold">target 1200 °C</text><path d="M301.02073166376,159.90236666666667 L303.4613114076011,157.88216666666668 L305.92067806377287,155.7363 L308.3654565669519,153.48296666666667 L310.82596559876987,151.1447 L313.2696865582931,148.74446666666665 L315.716585331008,146.30523333333332 L318.1571650748491,143.84606666666667 L320.61653173102087,141.37866666666667 L323.0613102341999,138.90693333333334 L325.5084639048157,136.42956666666666 L327.9655402255411,133.93963333333335 L330.412438998256,131.4289 L332.8624647815527,128.88566666666668 L335.3123853982689,126.303 L337.7571639014478,123.67266666666666 L340.21099630426806,120.97733333333333 L342.6613938927891,118.21700000000001 L345.108292665504,115.37866666666667 L347.55831844880066,112.45366666666666 L350.0082390655169,109.44633333333333 L352.45676575843555,106.33500000000001 L354.90684997151607,103.12833333333333 L357.35427293566073,99.80466666666666 L359.804146332752,96.364 L362.25417211604866,92.79333333333332 L364.7019892915997,89.07966666666667 L367.15261942568355,85.21433333333333 L369.6010341529403,81.17566666666667 L372.05012660290873,76.955 L374.5,72.535 L376.94884525849295,67.894 L379.3988947055159,63.014666666666685 L381.84753610761675,57.87100000000001 L384.2968878201883,52.44566666666667 L386.7467239653778,54.08366666666666 L389.195853667248,63.118666666666655 L391.6452891963594,71.29566666666668 L394.0942225059515,78.72300000000001 L396.5438582726983,85.496 L398.9931588712169,91.70133333333334 L401.4425776326258,97.41266666666665 L403.891707334496,102.69933333333333 L406.3411428636074,107.60900000000001 L408.7903391082361,112.19800000000001 L411.2397119399463,116.501 L413.6890125384649,120.55266666666667 L416.13824537851417,124.38333333333333 L418.587561001744,128.02333333333334 L421.0368489647414,131.49043333333333 L423.48619277548414,134.805 L425.93544848370647,137.9835 L428.3847618605381,141.03763333333333 L430.8340990457622,143.97693333333333 L433.283414668992,146.80573333333334 L435.7327026319894,149.52403333333334 L438.18204644273214,152.1262 L440.63136071277927,154.60183333333333 L443.0806677004377,156.93533333333335 L445.5299527130102,159.10936666666666 L447.97926833624,161.10616666666667" fill="none" stroke="#D55E00" stroke-width="1.5"/><text x="291" y="181" font-size="8" fill="#D55E00" text-anchor="start" font-weight="normal">met between L/D 3.2 and 102</text><text x="458" y="46" font-size="8" fill="#E69F00" text-anchor="end" font-weight="bold">voltage limited</text><text x="291" y="46" font-size="8" fill="#0072B2" text-anchor="start" font-weight="bold">current limited</text><text x="16" y="242" font-size="11" fill="#111111" text-anchor="start" font-weight="bold">c</text><text x="52" y="242" font-size="8" fill="#6E6E6E" text-anchor="start" font-weight="bold">SHAPES THAT REACH 1200 °C, IN SIC</text><path d="M52,248 L252,248" fill="none" stroke="#111111" stroke-width="0.8"/><text x="52" y="266" font-size="9" fill="#D55E00" text-anchor="start" font-weight="bold">solid rod</text><text x="252" y="266" font-size="8" fill="#8A8A8A" text-anchor="end" font-weight="normal">current limited</text><text x="52" y="277" font-size="8.5" fill="#111111" text-anchor="start" font-weight="normal">D 7.9 mm, L 24.1 mm</text><text x="52" y="288" font-size="8" fill="#6E6E6E" text-anchor="start" font-weight="normal">0.27 Ω · 20.0 A · 5.5 V · 109 W</text><path d="M52,293 L252,293" fill="none" stroke="#E8E8E8" stroke-width="0.5"/><text x="52" y="300" font-size="9" fill="#D55E00" text-anchor="start" font-weight="bold">tube, 22 % solid</text><text x="252" y="300" font-size="8" fill="#8A8A8A" text-anchor="end" font-weight="normal">current limited</text><text x="52" y="311" font-size="8.5" fill="#111111" text-anchor="start" font-weight="normal">OD 13.4 mm, L 38.0 mm, wall 0.78 mm</text><text x="52" y="322" font-size="8" fill="#6E6E6E" text-anchor="start" font-weight="normal">0.68 Ω · 20.0 A · 13.6 V · 272 W</text><path d="M52,327 L252,327" fill="none" stroke="#E8E8E8" stroke-width="0.5"/><text x="52" y="334" font-size="9" fill="#D55E00" text-anchor="start" font-weight="bold">flat strip</text><text x="252" y="334" font-size="8" fill="#8A8A8A" text-anchor="end" font-weight="normal">current limited</text><text x="52" y="345" font-size="8.5" fill="#111111" text-anchor="start" font-weight="normal">38 × 26.9 × 1.0 mm</text><text x="52" y="356" font-size="8" fill="#6E6E6E" text-anchor="start" font-weight="normal">0.79 Ω · 20.0 A · 15.7 V · 314 W</text><text x="251" y="242" font-size="11" fill="#111111" text-anchor="start" font-weight="bold">d</text><text x="287" y="242" font-size="8" fill="#6E6E6E" text-anchor="start" font-weight="bold">MATERIALS THAT REACH 1200 °C</text><path d="M287,248 L487,248" fill="none" stroke="#111111" stroke-width="0.8"/><rect x="287" y="258.5" width="7" height="7" fill="#D55E00" stroke="#D55E00" stroke-width="0.8"/><text x="299" y="265" font-size="8.5" fill="#111111" text-anchor="start" font-weight="normal">SiC</text><text x="487" y="265" font-size="8" fill="#6E6E6E" text-anchor="end" font-weight="normal">L/D 3.2,  0.29 Ω</text><rect x="287" y="274.5" width="7" height="7" fill="#D55E00" stroke="#D55E00" stroke-width="0.8"/><text x="299" y="281" font-size="8.5" fill="#111111" text-anchor="start" font-weight="normal">CFP</text><text x="487" y="281" font-size="8" fill="#6E6E6E" text-anchor="end" font-weight="normal">L/D 3.6,  0.30 Ω</text><rect x="287" y="290.5" width="7" height="7" fill="#D55E00" stroke="#D55E00" stroke-width="0.8"/><text x="299" y="297" font-size="8.5" fill="#111111" text-anchor="start" font-weight="normal">SiSiC</text><text x="487" y="297" font-size="8" fill="#6E6E6E" text-anchor="end" font-weight="normal">L/D 10.1,  0.38 Ω</text><rect x="287" y="306.5" width="7" height="7" fill="#FFFFFF" stroke="#8A8A8A" stroke-width="0.8"/><text x="299" y="313" font-size="8.5" fill="#8A8A8A" text-anchor="start" font-weight="normal">Kanthal A-1</text><text x="487" y="313" font-size="8" fill="#8A8A8A" text-anchor="end" font-weight="normal">requires 129 A at 1.4 V †</text><rect x="287" y="322.5" width="7" height="7" fill="#FFFFFF" stroke="#8A8A8A" stroke-width="0.8"/><text x="299" y="329" font-size="8.5" fill="#8A8A8A" text-anchor="start" font-weight="normal">MoSi₂</text><text x="487" y="329" font-size="8" fill="#8A8A8A" text-anchor="end" font-weight="normal">requires 139 A at 0.9 V †</text><rect x="287" y="338.5" width="7" height="7" fill="#FFFFFF" stroke="#8A8A8A" stroke-width="0.8"/><text x="299" y="345" font-size="8.5" fill="#8A8A8A" text-anchor="start" font-weight="normal">Molybdenum</text><text x="487" y="345" font-size="8" fill="#8A8A8A" text-anchor="end" font-weight="normal">requires 386 A at 0.3 V †</text><text x="287" y="370" font-size="8" fill="#6E6E6E" text-anchor="start" font-weight="normal">resistivity spans 5.6×10<tspan font-size="8" dy="-3.1">−2</tspan><tspan dy="3.1">​</tspan> to 5.3×10<tspan font-size="8" dy="-3.1">−6</tspan><tspan dy="3.1">​</tspan> Ω·cm</text></svg>